M48
;DRILL file {Pcbnew (2013-07-07 BZR 4022)-stable} date 1/16/2015 9:28:46 PM
;FORMAT={-:-/ absolute / inch / decimal}
FMAT,2
INCH,TZ
T1C0.040
T2C0.043
T3C0.120
%
G90
G05
M72
T1
X1.3Y-1.65
X1.3Y-1.85
X1.3Y-2.6
X1.3Y-2.8
X1.425Y-1.1
X1.425Y-2.05
X1.5Y-1.65
X1.5Y-1.85
X1.5Y-2.6
X1.5Y-2.8
X1.525Y-1.1
X1.525Y-2.05
X1.6Y-1.65
X1.6Y-1.85
X1.6Y-2.6
X1.6Y-2.8
X1.7Y-1.65
X1.7Y-1.85
X1.7Y-2.6
X1.7Y-2.8
X2.25Y-1.65
X2.25Y-1.85
X2.25Y-2.6
X2.25Y-2.8
X2.375Y-1.1
X2.375Y-2.05
X2.45Y-1.65
X2.45Y-1.85
X2.45Y-2.6
X2.45Y-2.8
X2.475Y-1.1
X2.475Y-2.05
X2.55Y-1.65
X2.55Y-1.85
X2.55Y-2.6
X2.55Y-2.8
X2.65Y-1.65
X2.65Y-1.85
X2.65Y-2.6
X2.65Y-2.8
T2
X1.15Y-1.1
X1.15Y-1.3
X1.15Y-2.05
X1.15Y-2.25
X1.8Y-1.1
X1.8Y-1.3
X1.8Y-2.05
X1.8Y-2.25
X2.1Y-1.1
X2.1Y-1.3
X2.1Y-2.05
X2.1Y-2.25
X2.75Y-1.1
X2.75Y-1.3
X2.75Y-2.05
X2.75Y-2.25
T3
X1.45Y-1.45
X1.45Y-2.4
X2.4Y-1.45
X2.4Y-2.4
T0
M30
