G04 (created by PCBNEW (2013-07-07 BZR 4022)-stable) date 1/16/2015 9:29:06 PM*
%MOIN*%
G04 Gerber Fmt 3.4, Leading zero omitted, Abs format*
%FSLAX34Y34*%
G01*
G70*
G90*
G04 APERTURE LIST*
%ADD10C,0.00590551*%
%ADD11C,0.0787402*%
%ADD12C,0.06*%
%ADD13R,0.06X0.06*%
%ADD14C,0.16*%
%ADD15C,0.015*%
G04 APERTURE END LIST*
G54D10*
G54D11*
X21000Y-22500D03*
X21000Y-20500D03*
X27500Y-20500D03*
X27500Y-22500D03*
X21000Y-13000D03*
X21000Y-11000D03*
X18000Y-20500D03*
X18000Y-22500D03*
X11500Y-13000D03*
X11500Y-11000D03*
X27500Y-11000D03*
X27500Y-13000D03*
X11500Y-22500D03*
X11500Y-20500D03*
X18000Y-11000D03*
X18000Y-13000D03*
G54D12*
X22500Y-28000D03*
X24500Y-28000D03*
X25500Y-28000D03*
X26500Y-28000D03*
X26500Y-26000D03*
X25500Y-26000D03*
X24500Y-26000D03*
X22500Y-26000D03*
X13000Y-28000D03*
X15000Y-28000D03*
X16000Y-28000D03*
X17000Y-28000D03*
X17000Y-26000D03*
X16000Y-26000D03*
X15000Y-26000D03*
X13000Y-26000D03*
X22500Y-18500D03*
X24500Y-18500D03*
X25500Y-18500D03*
X26500Y-18500D03*
X26500Y-16500D03*
X25500Y-16500D03*
X24500Y-16500D03*
X22500Y-16500D03*
X13000Y-18500D03*
X15000Y-18500D03*
X16000Y-18500D03*
X17000Y-18500D03*
X17000Y-16500D03*
X16000Y-16500D03*
X15000Y-16500D03*
X13000Y-16500D03*
G54D13*
X23750Y-20500D03*
G54D12*
X24750Y-20500D03*
G54D13*
X14250Y-20500D03*
G54D12*
X15250Y-20500D03*
G54D13*
X23750Y-11000D03*
G54D12*
X24750Y-11000D03*
G54D13*
X14250Y-11000D03*
G54D12*
X15250Y-11000D03*
G54D14*
X14500Y-14500D03*
X24000Y-14500D03*
X14500Y-24000D03*
X24000Y-24000D03*
G54D15*
X17000Y-28000D02*
X17000Y-27500D01*
X13000Y-27500D02*
X13000Y-28000D01*
X13250Y-27250D02*
X13000Y-27500D01*
X16750Y-27250D02*
X13250Y-27250D01*
X17000Y-27500D02*
X16750Y-27250D01*
X26500Y-28000D02*
X26500Y-27750D01*
X22500Y-27750D02*
X22500Y-28000D01*
X23000Y-27250D02*
X22500Y-27750D01*
X26000Y-27250D02*
X23000Y-27250D01*
X26500Y-27750D02*
X26000Y-27250D01*
X26500Y-18500D02*
X26500Y-18250D01*
X22500Y-18250D02*
X22500Y-18500D01*
X23000Y-17750D02*
X22500Y-18250D01*
X26000Y-17750D02*
X23000Y-17750D01*
X26500Y-18250D02*
X26000Y-17750D01*
X17000Y-18500D02*
X17000Y-18250D01*
X13750Y-17750D02*
X13000Y-18500D01*
X16500Y-17750D02*
X13750Y-17750D01*
X17000Y-18250D02*
X16500Y-17750D01*
M02*
