G04 (created by PCBNEW (2013-07-07 BZR 4022)-stable) date 1/16/2015 9:29:06 PM*
%MOIN*%
G04 Gerber Fmt 3.4, Leading zero omitted, Abs format*
%FSLAX34Y34*%
G01*
G70*
G90*
G04 APERTURE LIST*
%ADD10C,0.00590551*%
%ADD11C,0.006*%
%ADD12C,0.015*%
%ADD13C,0.01*%
G04 APERTURE END LIST*
G54D10*
X19500Y-20000D02*
X19500Y-23000D01*
X19500Y-23000D02*
X22500Y-23000D01*
X22500Y-23000D02*
X22500Y-20000D01*
X22500Y-20000D02*
X19500Y-20000D01*
X29000Y-23000D02*
X29000Y-20000D01*
X29000Y-20000D02*
X26000Y-20000D01*
X26000Y-20000D02*
X26000Y-23000D01*
X26000Y-23000D02*
X29000Y-23000D01*
X19500Y-10500D02*
X19500Y-13500D01*
X19500Y-13500D02*
X22500Y-13500D01*
X22500Y-13500D02*
X22500Y-10500D01*
X22500Y-10500D02*
X19500Y-10500D01*
X19500Y-23000D02*
X19500Y-20000D01*
X19500Y-20000D02*
X16500Y-20000D01*
X16500Y-20000D02*
X16500Y-23000D01*
X16500Y-23000D02*
X19500Y-23000D01*
X10000Y-10500D02*
X10000Y-13500D01*
X10000Y-13500D02*
X13000Y-13500D01*
X13000Y-13500D02*
X13000Y-10500D01*
X13000Y-10500D02*
X10000Y-10500D01*
X29000Y-13500D02*
X29000Y-10500D01*
X29000Y-10500D02*
X26000Y-10500D01*
X26000Y-10500D02*
X26000Y-13500D01*
X26000Y-13500D02*
X29000Y-13500D01*
X10000Y-20000D02*
X10000Y-23000D01*
X10000Y-23000D02*
X13000Y-23000D01*
X13000Y-23000D02*
X13000Y-20000D01*
X13000Y-20000D02*
X10000Y-20000D01*
X19500Y-13500D02*
X19500Y-10500D01*
X19500Y-10500D02*
X16500Y-10500D01*
X16500Y-10500D02*
X16500Y-13500D01*
X16500Y-13500D02*
X19500Y-13500D01*
X21500Y-28500D02*
X27500Y-28500D01*
X27500Y-28500D02*
X27500Y-25500D01*
X27500Y-25500D02*
X21500Y-25500D01*
X21500Y-25500D02*
X21500Y-28500D01*
X12000Y-28500D02*
X18000Y-28500D01*
X18000Y-28500D02*
X18000Y-25500D01*
X18000Y-25500D02*
X12000Y-25500D01*
X12000Y-25500D02*
X12000Y-28500D01*
X21500Y-19000D02*
X27500Y-19000D01*
X27500Y-19000D02*
X27500Y-16000D01*
X27500Y-16000D02*
X21500Y-16000D01*
X21500Y-16000D02*
X21500Y-19000D01*
X12000Y-19000D02*
X18000Y-19000D01*
X18000Y-19000D02*
X18000Y-16000D01*
X18000Y-16000D02*
X12000Y-16000D01*
X12000Y-16000D02*
X12000Y-19000D01*
G54D11*
X23250Y-21000D02*
X23250Y-20000D01*
X23250Y-20000D02*
X25250Y-20000D01*
X25250Y-20000D02*
X25250Y-21000D01*
X25250Y-21000D02*
X23250Y-21000D01*
X13750Y-21000D02*
X13750Y-20000D01*
X13750Y-20000D02*
X15750Y-20000D01*
X15750Y-20000D02*
X15750Y-21000D01*
X15750Y-21000D02*
X13750Y-21000D01*
X23250Y-11500D02*
X23250Y-10500D01*
X23250Y-10500D02*
X25250Y-10500D01*
X25250Y-10500D02*
X25250Y-11500D01*
X25250Y-11500D02*
X23250Y-11500D01*
X13750Y-11500D02*
X13750Y-10500D01*
X13750Y-10500D02*
X15750Y-10500D01*
X15750Y-10500D02*
X15750Y-11500D01*
X15750Y-11500D02*
X13750Y-11500D01*
G54D12*
X15400Y-14500D02*
G75*
G03X15400Y-14500I-900J0D01*
G74*
G01*
X24900Y-14500D02*
G75*
G03X24900Y-14500I-900J0D01*
G74*
G01*
X15400Y-24000D02*
G75*
G03X15400Y-24000I-900J0D01*
G74*
G01*
X24900Y-24000D02*
G75*
G03X24900Y-24000I-900J0D01*
G74*
G01*
G54D10*
X20265Y-21631D02*
X20546Y-21631D01*
X20603Y-21649D01*
X20640Y-21687D01*
X20659Y-21743D01*
X20659Y-21781D01*
X20265Y-21256D02*
X20265Y-21443D01*
X20453Y-21462D01*
X20434Y-21443D01*
X20415Y-21406D01*
X20415Y-21312D01*
X20434Y-21275D01*
X20453Y-21256D01*
X20490Y-21237D01*
X20584Y-21237D01*
X20621Y-21256D01*
X20640Y-21275D01*
X20659Y-21312D01*
X20659Y-21406D01*
X20640Y-21443D01*
X20621Y-21462D01*
X27765Y-21631D02*
X28046Y-21631D01*
X28103Y-21649D01*
X28140Y-21687D01*
X28159Y-21743D01*
X28159Y-21781D01*
X27765Y-21275D02*
X27765Y-21350D01*
X27784Y-21387D01*
X27803Y-21406D01*
X27859Y-21443D01*
X27934Y-21462D01*
X28084Y-21462D01*
X28121Y-21443D01*
X28140Y-21425D01*
X28159Y-21387D01*
X28159Y-21312D01*
X28140Y-21275D01*
X28121Y-21256D01*
X28084Y-21237D01*
X27990Y-21237D01*
X27953Y-21256D01*
X27934Y-21275D01*
X27915Y-21312D01*
X27915Y-21387D01*
X27934Y-21425D01*
X27953Y-21443D01*
X27990Y-21462D01*
X20265Y-12131D02*
X20546Y-12131D01*
X20603Y-12149D01*
X20640Y-12187D01*
X20659Y-12243D01*
X20659Y-12281D01*
X20659Y-11737D02*
X20659Y-11962D01*
X20659Y-11850D02*
X20265Y-11850D01*
X20321Y-11887D01*
X20359Y-11925D01*
X20378Y-11962D01*
X18265Y-21631D02*
X18546Y-21631D01*
X18603Y-21649D01*
X18640Y-21687D01*
X18659Y-21743D01*
X18659Y-21781D01*
X18303Y-21462D02*
X18284Y-21443D01*
X18265Y-21406D01*
X18265Y-21312D01*
X18284Y-21275D01*
X18303Y-21256D01*
X18340Y-21237D01*
X18378Y-21237D01*
X18434Y-21256D01*
X18659Y-21481D01*
X18659Y-21237D01*
X10765Y-12131D02*
X11046Y-12131D01*
X11103Y-12149D01*
X11140Y-12187D01*
X11159Y-12243D01*
X11159Y-12281D01*
X10765Y-11981D02*
X10765Y-11718D01*
X11159Y-11887D01*
X27765Y-12131D02*
X28046Y-12131D01*
X28103Y-12149D01*
X28140Y-12187D01*
X28159Y-12243D01*
X28159Y-12281D01*
X27934Y-11887D02*
X27915Y-11925D01*
X27896Y-11943D01*
X27859Y-11962D01*
X27840Y-11962D01*
X27803Y-11943D01*
X27784Y-11925D01*
X27765Y-11887D01*
X27765Y-11812D01*
X27784Y-11775D01*
X27803Y-11756D01*
X27840Y-11737D01*
X27859Y-11737D01*
X27896Y-11756D01*
X27915Y-11775D01*
X27934Y-11812D01*
X27934Y-11887D01*
X27953Y-11925D01*
X27971Y-11943D01*
X28009Y-11962D01*
X28084Y-11962D01*
X28121Y-11943D01*
X28140Y-11925D01*
X28159Y-11887D01*
X28159Y-11812D01*
X28140Y-11775D01*
X28121Y-11756D01*
X28084Y-11737D01*
X28009Y-11737D01*
X27971Y-11756D01*
X27953Y-11775D01*
X27934Y-11812D01*
X10765Y-21631D02*
X11046Y-21631D01*
X11103Y-21649D01*
X11140Y-21687D01*
X11159Y-21743D01*
X11159Y-21781D01*
X10765Y-21481D02*
X10765Y-21237D01*
X10915Y-21368D01*
X10915Y-21312D01*
X10934Y-21275D01*
X10953Y-21256D01*
X10990Y-21237D01*
X11084Y-21237D01*
X11121Y-21256D01*
X11140Y-21275D01*
X11159Y-21312D01*
X11159Y-21425D01*
X11140Y-21462D01*
X11121Y-21481D01*
X18265Y-12131D02*
X18546Y-12131D01*
X18603Y-12149D01*
X18640Y-12187D01*
X18659Y-12243D01*
X18659Y-12281D01*
X18396Y-11775D02*
X18659Y-11775D01*
X18246Y-11868D02*
X18528Y-11962D01*
X18528Y-11718D01*
X23659Y-27224D02*
X23471Y-27356D01*
X23659Y-27449D02*
X23265Y-27449D01*
X23265Y-27299D01*
X23284Y-27262D01*
X23303Y-27243D01*
X23340Y-27224D01*
X23396Y-27224D01*
X23434Y-27243D01*
X23453Y-27262D01*
X23471Y-27299D01*
X23471Y-27449D01*
X23659Y-26868D02*
X23659Y-27056D01*
X23265Y-27056D01*
X23265Y-26775D02*
X23265Y-26531D01*
X23415Y-26662D01*
X23415Y-26606D01*
X23434Y-26568D01*
X23453Y-26550D01*
X23490Y-26531D01*
X23584Y-26531D01*
X23621Y-26550D01*
X23640Y-26568D01*
X23659Y-26606D01*
X23659Y-26718D01*
X23640Y-26756D01*
X23621Y-26775D01*
X14159Y-27224D02*
X13971Y-27356D01*
X14159Y-27449D02*
X13765Y-27449D01*
X13765Y-27299D01*
X13784Y-27262D01*
X13803Y-27243D01*
X13840Y-27224D01*
X13896Y-27224D01*
X13934Y-27243D01*
X13953Y-27262D01*
X13971Y-27299D01*
X13971Y-27449D01*
X14159Y-26868D02*
X14159Y-27056D01*
X13765Y-27056D01*
X14159Y-26531D02*
X14159Y-26756D01*
X14159Y-26643D02*
X13765Y-26643D01*
X13821Y-26681D01*
X13859Y-26718D01*
X13878Y-26756D01*
X23659Y-17724D02*
X23471Y-17856D01*
X23659Y-17949D02*
X23265Y-17949D01*
X23265Y-17799D01*
X23284Y-17762D01*
X23303Y-17743D01*
X23340Y-17724D01*
X23396Y-17724D01*
X23434Y-17743D01*
X23453Y-17762D01*
X23471Y-17799D01*
X23471Y-17949D01*
X23659Y-17368D02*
X23659Y-17556D01*
X23265Y-17556D01*
X23396Y-17068D02*
X23659Y-17068D01*
X23246Y-17162D02*
X23528Y-17256D01*
X23528Y-17012D01*
X14159Y-17724D02*
X13971Y-17856D01*
X14159Y-17949D02*
X13765Y-17949D01*
X13765Y-17799D01*
X13784Y-17762D01*
X13803Y-17743D01*
X13840Y-17724D01*
X13896Y-17724D01*
X13934Y-17743D01*
X13953Y-17762D01*
X13971Y-17799D01*
X13971Y-17949D01*
X14159Y-17368D02*
X14159Y-17556D01*
X13765Y-17556D01*
X13803Y-17256D02*
X13784Y-17237D01*
X13765Y-17200D01*
X13765Y-17106D01*
X13784Y-17068D01*
X13803Y-17050D01*
X13840Y-17031D01*
X13878Y-17031D01*
X13934Y-17050D01*
X14159Y-17275D01*
X14159Y-17031D01*
G54D11*
X24028Y-19871D02*
X24028Y-19571D01*
X24142Y-19571D01*
X24171Y-19585D01*
X24185Y-19600D01*
X24200Y-19628D01*
X24200Y-19671D01*
X24185Y-19700D01*
X24171Y-19714D01*
X24142Y-19728D01*
X24028Y-19728D01*
X24300Y-19571D02*
X24485Y-19571D01*
X24385Y-19685D01*
X24428Y-19685D01*
X24457Y-19700D01*
X24471Y-19714D01*
X24485Y-19742D01*
X24485Y-19814D01*
X24471Y-19842D01*
X24457Y-19857D01*
X24428Y-19871D01*
X24342Y-19871D01*
X24314Y-19857D01*
X24300Y-19842D01*
X14528Y-19871D02*
X14528Y-19571D01*
X14642Y-19571D01*
X14671Y-19585D01*
X14685Y-19600D01*
X14700Y-19628D01*
X14700Y-19671D01*
X14685Y-19700D01*
X14671Y-19714D01*
X14642Y-19728D01*
X14528Y-19728D01*
X14985Y-19871D02*
X14814Y-19871D01*
X14900Y-19871D02*
X14900Y-19571D01*
X14871Y-19614D01*
X14842Y-19642D01*
X14814Y-19657D01*
X24028Y-10371D02*
X24028Y-10071D01*
X24142Y-10071D01*
X24171Y-10085D01*
X24185Y-10100D01*
X24200Y-10128D01*
X24200Y-10171D01*
X24185Y-10200D01*
X24171Y-10214D01*
X24142Y-10228D01*
X24028Y-10228D01*
X24457Y-10171D02*
X24457Y-10371D01*
X24385Y-10057D02*
X24314Y-10271D01*
X24500Y-10271D01*
X14528Y-10371D02*
X14528Y-10071D01*
X14642Y-10071D01*
X14671Y-10085D01*
X14685Y-10100D01*
X14700Y-10128D01*
X14700Y-10171D01*
X14685Y-10200D01*
X14671Y-10214D01*
X14642Y-10228D01*
X14528Y-10228D01*
X14814Y-10100D02*
X14828Y-10085D01*
X14857Y-10071D01*
X14928Y-10071D01*
X14957Y-10085D01*
X14971Y-10100D01*
X14985Y-10128D01*
X14985Y-10157D01*
X14971Y-10200D01*
X14800Y-10371D01*
X14985Y-10371D01*
G54D13*
X14109Y-13461D02*
X13880Y-13461D01*
X13995Y-13461D02*
X13995Y-13061D01*
X13957Y-13119D01*
X13919Y-13157D01*
X13880Y-13176D01*
X14280Y-13461D02*
X14280Y-13061D01*
X14433Y-13061D01*
X14471Y-13080D01*
X14490Y-13100D01*
X14509Y-13138D01*
X14509Y-13195D01*
X14490Y-13233D01*
X14471Y-13252D01*
X14433Y-13271D01*
X14280Y-13271D01*
X14680Y-13461D02*
X14680Y-13061D01*
X14871Y-13461D02*
X14871Y-13061D01*
X15100Y-13461D01*
X15100Y-13061D01*
X23609Y-13461D02*
X23380Y-13461D01*
X23495Y-13461D02*
X23495Y-13061D01*
X23457Y-13119D01*
X23419Y-13157D01*
X23380Y-13176D01*
X23780Y-13461D02*
X23780Y-13061D01*
X23933Y-13061D01*
X23971Y-13080D01*
X23990Y-13100D01*
X24009Y-13138D01*
X24009Y-13195D01*
X23990Y-13233D01*
X23971Y-13252D01*
X23933Y-13271D01*
X23780Y-13271D01*
X24180Y-13461D02*
X24180Y-13061D01*
X24371Y-13461D02*
X24371Y-13061D01*
X24600Y-13461D01*
X24600Y-13061D01*
X14109Y-22961D02*
X13880Y-22961D01*
X13995Y-22961D02*
X13995Y-22561D01*
X13957Y-22619D01*
X13919Y-22657D01*
X13880Y-22676D01*
X14280Y-22961D02*
X14280Y-22561D01*
X14433Y-22561D01*
X14471Y-22580D01*
X14490Y-22600D01*
X14509Y-22638D01*
X14509Y-22695D01*
X14490Y-22733D01*
X14471Y-22752D01*
X14433Y-22771D01*
X14280Y-22771D01*
X14680Y-22961D02*
X14680Y-22561D01*
X14871Y-22961D02*
X14871Y-22561D01*
X15100Y-22961D01*
X15100Y-22561D01*
X23609Y-22961D02*
X23380Y-22961D01*
X23495Y-22961D02*
X23495Y-22561D01*
X23457Y-22619D01*
X23419Y-22657D01*
X23380Y-22676D01*
X23780Y-22961D02*
X23780Y-22561D01*
X23933Y-22561D01*
X23971Y-22580D01*
X23990Y-22600D01*
X24009Y-22638D01*
X24009Y-22695D01*
X23990Y-22733D01*
X23971Y-22752D01*
X23933Y-22771D01*
X23780Y-22771D01*
X24180Y-22961D02*
X24180Y-22561D01*
X24371Y-22961D02*
X24371Y-22561D01*
X24600Y-22961D01*
X24600Y-22561D01*
M02*
