G04 (created by PCBNEW (2013-07-07 BZR 4022)-stable) date 1/16/2015 9:29:06 PM*
%MOIN*%
G04 Gerber Fmt 3.4, Leading zero omitted, Abs format*
%FSLAX34Y34*%
G01*
G70*
G90*
G04 APERTURE LIST*
%ADD10C,0.00590551*%
%ADD11C,0.0787402*%
%ADD12C,0.06*%
%ADD13R,0.06X0.06*%
%ADD14C,0.16*%
%ADD15C,0.015*%
%ADD16C,0.01*%
G04 APERTURE END LIST*
G54D10*
G54D11*
X21000Y-22500D03*
X21000Y-20500D03*
X27500Y-20500D03*
X27500Y-22500D03*
X21000Y-13000D03*
X21000Y-11000D03*
X18000Y-20500D03*
X18000Y-22500D03*
X11500Y-13000D03*
X11500Y-11000D03*
X27500Y-11000D03*
X27500Y-13000D03*
X11500Y-22500D03*
X11500Y-20500D03*
X18000Y-11000D03*
X18000Y-13000D03*
G54D12*
X22500Y-28000D03*
X24500Y-28000D03*
X25500Y-28000D03*
X26500Y-28000D03*
X26500Y-26000D03*
X25500Y-26000D03*
X24500Y-26000D03*
X22500Y-26000D03*
X13000Y-28000D03*
X15000Y-28000D03*
X16000Y-28000D03*
X17000Y-28000D03*
X17000Y-26000D03*
X16000Y-26000D03*
X15000Y-26000D03*
X13000Y-26000D03*
X22500Y-18500D03*
X24500Y-18500D03*
X25500Y-18500D03*
X26500Y-18500D03*
X26500Y-16500D03*
X25500Y-16500D03*
X24500Y-16500D03*
X22500Y-16500D03*
X13000Y-18500D03*
X15000Y-18500D03*
X16000Y-18500D03*
X17000Y-18500D03*
X17000Y-16500D03*
X16000Y-16500D03*
X15000Y-16500D03*
X13000Y-16500D03*
G54D13*
X23750Y-20500D03*
G54D12*
X24750Y-20500D03*
G54D13*
X14250Y-20500D03*
G54D12*
X15250Y-20500D03*
G54D13*
X23750Y-11000D03*
G54D12*
X24750Y-11000D03*
G54D13*
X14250Y-11000D03*
G54D12*
X15250Y-11000D03*
G54D14*
X14500Y-14500D03*
X24000Y-14500D03*
X14500Y-24000D03*
X24000Y-24000D03*
G54D15*
X15000Y-26000D02*
X13000Y-28000D01*
X24500Y-26000D02*
X22500Y-28000D01*
X24500Y-16500D02*
X22500Y-18500D01*
X15000Y-16500D02*
X13000Y-18500D01*
X21000Y-22500D02*
X21000Y-27250D01*
X21750Y-28000D02*
X22500Y-28000D01*
X21000Y-27250D02*
X21750Y-28000D01*
X11500Y-22500D02*
X11500Y-27250D01*
X12250Y-28000D02*
X13000Y-28000D01*
X11500Y-27250D02*
X12250Y-28000D01*
X21000Y-13000D02*
X21000Y-17500D01*
X22000Y-18500D02*
X22500Y-18500D01*
X21000Y-17500D02*
X22000Y-18500D01*
X11500Y-13000D02*
X11500Y-17750D01*
X12250Y-18500D02*
X13000Y-18500D01*
X11500Y-17750D02*
X12250Y-18500D01*
X27500Y-11000D02*
X26750Y-11000D01*
X25500Y-12250D02*
X25500Y-16500D01*
X26750Y-11000D02*
X25500Y-12250D01*
X27500Y-22500D02*
X27500Y-26500D01*
X25500Y-27500D02*
X25500Y-28000D01*
X26000Y-27000D02*
X25500Y-27500D01*
X27000Y-27000D02*
X26000Y-27000D01*
X27500Y-26500D02*
X27000Y-27000D01*
X22500Y-26000D02*
X22500Y-22500D01*
X23750Y-21250D02*
X23750Y-20500D01*
X22500Y-22500D02*
X23750Y-21250D01*
X13000Y-26000D02*
X13000Y-22500D01*
X14250Y-21250D02*
X14250Y-20500D01*
X13000Y-22500D02*
X14250Y-21250D01*
X18000Y-20500D02*
X17500Y-20500D01*
X16000Y-22000D02*
X16000Y-26000D01*
X17500Y-20500D02*
X16000Y-22000D01*
X18000Y-22500D02*
X18000Y-26250D01*
X16000Y-27500D02*
X16000Y-28000D01*
X16500Y-27000D02*
X16000Y-27500D01*
X17250Y-27000D02*
X16500Y-27000D01*
X18000Y-26250D02*
X17250Y-27000D01*
X27500Y-13000D02*
X27500Y-17000D01*
X25500Y-18000D02*
X25500Y-18500D01*
X26000Y-17500D02*
X25500Y-18000D01*
X27000Y-17500D02*
X26000Y-17500D01*
X27500Y-17000D02*
X27000Y-17500D01*
X22500Y-16500D02*
X22500Y-13000D01*
X23750Y-11750D02*
X23750Y-11000D01*
X22500Y-13000D02*
X23750Y-11750D01*
X18000Y-11000D02*
X17500Y-11000D01*
X16000Y-12500D02*
X16000Y-16500D01*
X17500Y-11000D02*
X16000Y-12500D01*
X18000Y-13000D02*
X18000Y-16750D01*
X16000Y-17750D02*
X16000Y-18500D01*
X16250Y-17500D02*
X16000Y-17750D01*
X17250Y-17500D02*
X16250Y-17500D01*
X18000Y-16750D02*
X17250Y-17500D01*
X13000Y-16500D02*
X13000Y-13000D01*
X14250Y-11750D02*
X14250Y-11000D01*
X13000Y-13000D02*
X14250Y-11750D01*
X27500Y-20500D02*
X27000Y-20500D01*
X25500Y-22000D02*
X25500Y-26000D01*
X27000Y-20500D02*
X25500Y-22000D01*
G54D10*
G36*
X19230Y-19230D02*
X18643Y-19230D01*
X18643Y-12872D01*
X18643Y-10872D01*
X18546Y-10635D01*
X18365Y-10454D01*
X18128Y-10356D01*
X17872Y-10356D01*
X17635Y-10453D01*
X17454Y-10634D01*
X17432Y-10688D01*
X17375Y-10699D01*
X17270Y-10770D01*
X17270Y-10770D01*
X15804Y-12235D01*
X15804Y-11081D01*
X15793Y-10863D01*
X15731Y-10712D01*
X15635Y-10684D01*
X15565Y-10755D01*
X15565Y-10614D01*
X15537Y-10518D01*
X15331Y-10445D01*
X15113Y-10456D01*
X14962Y-10518D01*
X14934Y-10614D01*
X15250Y-10929D01*
X15565Y-10614D01*
X15565Y-10755D01*
X15320Y-11000D01*
X15635Y-11315D01*
X15731Y-11287D01*
X15804Y-11081D01*
X15804Y-12235D01*
X15770Y-12270D01*
X15699Y-12375D01*
X15675Y-12500D01*
X15675Y-16047D01*
X15565Y-16156D01*
X15565Y-11385D01*
X15250Y-11070D01*
X15179Y-11141D01*
X15179Y-11000D01*
X14864Y-10684D01*
X14800Y-10703D01*
X14800Y-10650D01*
X14762Y-10558D01*
X14691Y-10488D01*
X14599Y-10450D01*
X14500Y-10449D01*
X13900Y-10449D01*
X13808Y-10487D01*
X13738Y-10558D01*
X13700Y-10650D01*
X13699Y-10749D01*
X13699Y-11349D01*
X13737Y-11441D01*
X13808Y-11511D01*
X13900Y-11549D01*
X13925Y-11549D01*
X13925Y-11615D01*
X12770Y-12770D01*
X12699Y-12875D01*
X12675Y-13000D01*
X12675Y-16047D01*
X12534Y-16188D01*
X12450Y-16390D01*
X12449Y-16608D01*
X12533Y-16811D01*
X12688Y-16965D01*
X12890Y-17049D01*
X13108Y-17050D01*
X13311Y-16966D01*
X13465Y-16811D01*
X13549Y-16609D01*
X13550Y-16391D01*
X13466Y-16188D01*
X13325Y-16047D01*
X13325Y-13134D01*
X14479Y-11979D01*
X14550Y-11874D01*
X14550Y-11874D01*
X14575Y-11750D01*
X14575Y-11550D01*
X14599Y-11550D01*
X14691Y-11512D01*
X14761Y-11441D01*
X14799Y-11349D01*
X14800Y-11296D01*
X14864Y-11315D01*
X15179Y-11000D01*
X15179Y-11141D01*
X14934Y-11385D01*
X14962Y-11481D01*
X15168Y-11554D01*
X15386Y-11543D01*
X15537Y-11481D01*
X15565Y-11385D01*
X15565Y-16156D01*
X15550Y-16171D01*
X15550Y-14292D01*
X15390Y-13906D01*
X15095Y-13610D01*
X14709Y-13450D01*
X14292Y-13449D01*
X13906Y-13609D01*
X13610Y-13904D01*
X13450Y-14290D01*
X13449Y-14707D01*
X13609Y-15094D01*
X13904Y-15389D01*
X14290Y-15549D01*
X14707Y-15550D01*
X15094Y-15390D01*
X15389Y-15095D01*
X15549Y-14709D01*
X15550Y-14292D01*
X15550Y-16171D01*
X15534Y-16188D01*
X15500Y-16269D01*
X15466Y-16188D01*
X15311Y-16034D01*
X15109Y-15950D01*
X14891Y-15949D01*
X14688Y-16033D01*
X14534Y-16188D01*
X14450Y-16390D01*
X14449Y-16590D01*
X13090Y-17950D01*
X12891Y-17949D01*
X12688Y-18033D01*
X12547Y-18175D01*
X12384Y-18175D01*
X12147Y-17938D01*
X12147Y-11104D01*
X12138Y-10848D01*
X12058Y-10655D01*
X11953Y-10616D01*
X11883Y-10687D01*
X11883Y-10546D01*
X11844Y-10441D01*
X11604Y-10352D01*
X11348Y-10361D01*
X11155Y-10441D01*
X11116Y-10546D01*
X11500Y-10929D01*
X11883Y-10546D01*
X11883Y-10687D01*
X11570Y-11000D01*
X11953Y-11383D01*
X12058Y-11344D01*
X12147Y-11104D01*
X12147Y-17938D01*
X11825Y-17615D01*
X11825Y-13562D01*
X11864Y-13546D01*
X12045Y-13365D01*
X12143Y-13128D01*
X12143Y-12872D01*
X12046Y-12635D01*
X11883Y-12472D01*
X11883Y-11453D01*
X11500Y-11070D01*
X11429Y-11141D01*
X11429Y-11000D01*
X11046Y-10616D01*
X10941Y-10655D01*
X10852Y-10895D01*
X10861Y-11151D01*
X10941Y-11344D01*
X11046Y-11383D01*
X11429Y-11000D01*
X11429Y-11141D01*
X11116Y-11453D01*
X11155Y-11558D01*
X11395Y-11647D01*
X11651Y-11638D01*
X11844Y-11558D01*
X11883Y-11453D01*
X11883Y-12472D01*
X11865Y-12454D01*
X11628Y-12356D01*
X11372Y-12356D01*
X11135Y-12453D01*
X10954Y-12634D01*
X10856Y-12871D01*
X10856Y-13127D01*
X10953Y-13364D01*
X11134Y-13545D01*
X11175Y-13562D01*
X11175Y-17750D01*
X11199Y-17874D01*
X11270Y-17979D01*
X12020Y-18729D01*
X12020Y-18729D01*
X12125Y-18800D01*
X12125Y-18800D01*
X12225Y-18820D01*
X12249Y-18825D01*
X12249Y-18824D01*
X12250Y-18825D01*
X12547Y-18825D01*
X12688Y-18965D01*
X12890Y-19049D01*
X13108Y-19050D01*
X13311Y-18966D01*
X13465Y-18811D01*
X13549Y-18609D01*
X13550Y-18409D01*
X14909Y-17049D01*
X15108Y-17050D01*
X15311Y-16966D01*
X15465Y-16811D01*
X15499Y-16730D01*
X15533Y-16811D01*
X15688Y-16965D01*
X15890Y-17049D01*
X16108Y-17050D01*
X16311Y-16966D01*
X16465Y-16811D01*
X16497Y-16736D01*
X16518Y-16787D01*
X16614Y-16815D01*
X16929Y-16500D01*
X16614Y-16184D01*
X16518Y-16212D01*
X16499Y-16267D01*
X16466Y-16188D01*
X16325Y-16047D01*
X16325Y-12634D01*
X17524Y-11434D01*
X17634Y-11545D01*
X17871Y-11643D01*
X18127Y-11643D01*
X18364Y-11546D01*
X18545Y-11365D01*
X18643Y-11128D01*
X18643Y-10872D01*
X18643Y-12872D01*
X18546Y-12635D01*
X18365Y-12454D01*
X18128Y-12356D01*
X17872Y-12356D01*
X17635Y-12453D01*
X17454Y-12634D01*
X17356Y-12871D01*
X17356Y-13127D01*
X17453Y-13364D01*
X17634Y-13545D01*
X17675Y-13562D01*
X17675Y-16615D01*
X17554Y-16735D01*
X17430Y-16859D01*
X17385Y-16815D01*
X17481Y-16787D01*
X17554Y-16581D01*
X17543Y-16363D01*
X17481Y-16212D01*
X17385Y-16184D01*
X17315Y-16255D01*
X17315Y-16114D01*
X17287Y-16018D01*
X17081Y-15945D01*
X16863Y-15956D01*
X16712Y-16018D01*
X16684Y-16114D01*
X17000Y-16429D01*
X17315Y-16114D01*
X17315Y-16255D01*
X17070Y-16500D01*
X17076Y-16505D01*
X17005Y-16576D01*
X17000Y-16570D01*
X16684Y-16885D01*
X16712Y-16981D01*
X16918Y-17054D01*
X17136Y-17043D01*
X17287Y-16981D01*
X17315Y-16885D01*
X17315Y-16885D01*
X17359Y-16930D01*
X17315Y-16975D01*
X17115Y-17175D01*
X16250Y-17175D01*
X16125Y-17199D01*
X16020Y-17270D01*
X16020Y-17270D01*
X15770Y-17520D01*
X15699Y-17625D01*
X15675Y-17750D01*
X15675Y-18047D01*
X15534Y-18188D01*
X15502Y-18263D01*
X15481Y-18212D01*
X15385Y-18184D01*
X15315Y-18255D01*
X15315Y-18114D01*
X15287Y-18018D01*
X15081Y-17945D01*
X14863Y-17956D01*
X14712Y-18018D01*
X14684Y-18114D01*
X15000Y-18429D01*
X15315Y-18114D01*
X15315Y-18255D01*
X15070Y-18500D01*
X15385Y-18815D01*
X15481Y-18787D01*
X15500Y-18732D01*
X15533Y-18811D01*
X15688Y-18965D01*
X15890Y-19049D01*
X16108Y-19050D01*
X16311Y-18966D01*
X16465Y-18811D01*
X16499Y-18730D01*
X16533Y-18811D01*
X16688Y-18965D01*
X16890Y-19049D01*
X17108Y-19050D01*
X17311Y-18966D01*
X17465Y-18811D01*
X17549Y-18609D01*
X17550Y-18391D01*
X17466Y-18188D01*
X17311Y-18034D01*
X17109Y-17950D01*
X16891Y-17949D01*
X16688Y-18033D01*
X16534Y-18188D01*
X16500Y-18269D01*
X16466Y-18188D01*
X16325Y-18047D01*
X16325Y-17884D01*
X16384Y-17825D01*
X17250Y-17825D01*
X17374Y-17800D01*
X17374Y-17800D01*
X17479Y-17729D01*
X18229Y-16979D01*
X18229Y-16979D01*
X18229Y-16979D01*
X18300Y-16874D01*
X18300Y-16874D01*
X18320Y-16774D01*
X18325Y-16750D01*
X18324Y-16750D01*
X18325Y-16750D01*
X18325Y-13562D01*
X18364Y-13546D01*
X18545Y-13365D01*
X18643Y-13128D01*
X18643Y-12872D01*
X18643Y-19230D01*
X15315Y-19230D01*
X15315Y-18885D01*
X15000Y-18570D01*
X14929Y-18641D01*
X14929Y-18500D01*
X14614Y-18184D01*
X14518Y-18212D01*
X14445Y-18418D01*
X14456Y-18636D01*
X14518Y-18787D01*
X14614Y-18815D01*
X14929Y-18500D01*
X14929Y-18641D01*
X14684Y-18885D01*
X14712Y-18981D01*
X14918Y-19054D01*
X15136Y-19043D01*
X15287Y-18981D01*
X15315Y-18885D01*
X15315Y-19230D01*
X10269Y-19230D01*
X10269Y-10269D01*
X19230Y-10269D01*
X19230Y-19230D01*
X19230Y-19230D01*
G37*
G54D16*
X19230Y-19230D02*
X18643Y-19230D01*
X18643Y-12872D01*
X18643Y-10872D01*
X18546Y-10635D01*
X18365Y-10454D01*
X18128Y-10356D01*
X17872Y-10356D01*
X17635Y-10453D01*
X17454Y-10634D01*
X17432Y-10688D01*
X17375Y-10699D01*
X17270Y-10770D01*
X17270Y-10770D01*
X15804Y-12235D01*
X15804Y-11081D01*
X15793Y-10863D01*
X15731Y-10712D01*
X15635Y-10684D01*
X15565Y-10755D01*
X15565Y-10614D01*
X15537Y-10518D01*
X15331Y-10445D01*
X15113Y-10456D01*
X14962Y-10518D01*
X14934Y-10614D01*
X15250Y-10929D01*
X15565Y-10614D01*
X15565Y-10755D01*
X15320Y-11000D01*
X15635Y-11315D01*
X15731Y-11287D01*
X15804Y-11081D01*
X15804Y-12235D01*
X15770Y-12270D01*
X15699Y-12375D01*
X15675Y-12500D01*
X15675Y-16047D01*
X15565Y-16156D01*
X15565Y-11385D01*
X15250Y-11070D01*
X15179Y-11141D01*
X15179Y-11000D01*
X14864Y-10684D01*
X14800Y-10703D01*
X14800Y-10650D01*
X14762Y-10558D01*
X14691Y-10488D01*
X14599Y-10450D01*
X14500Y-10449D01*
X13900Y-10449D01*
X13808Y-10487D01*
X13738Y-10558D01*
X13700Y-10650D01*
X13699Y-10749D01*
X13699Y-11349D01*
X13737Y-11441D01*
X13808Y-11511D01*
X13900Y-11549D01*
X13925Y-11549D01*
X13925Y-11615D01*
X12770Y-12770D01*
X12699Y-12875D01*
X12675Y-13000D01*
X12675Y-16047D01*
X12534Y-16188D01*
X12450Y-16390D01*
X12449Y-16608D01*
X12533Y-16811D01*
X12688Y-16965D01*
X12890Y-17049D01*
X13108Y-17050D01*
X13311Y-16966D01*
X13465Y-16811D01*
X13549Y-16609D01*
X13550Y-16391D01*
X13466Y-16188D01*
X13325Y-16047D01*
X13325Y-13134D01*
X14479Y-11979D01*
X14550Y-11874D01*
X14550Y-11874D01*
X14575Y-11750D01*
X14575Y-11550D01*
X14599Y-11550D01*
X14691Y-11512D01*
X14761Y-11441D01*
X14799Y-11349D01*
X14800Y-11296D01*
X14864Y-11315D01*
X15179Y-11000D01*
X15179Y-11141D01*
X14934Y-11385D01*
X14962Y-11481D01*
X15168Y-11554D01*
X15386Y-11543D01*
X15537Y-11481D01*
X15565Y-11385D01*
X15565Y-16156D01*
X15550Y-16171D01*
X15550Y-14292D01*
X15390Y-13906D01*
X15095Y-13610D01*
X14709Y-13450D01*
X14292Y-13449D01*
X13906Y-13609D01*
X13610Y-13904D01*
X13450Y-14290D01*
X13449Y-14707D01*
X13609Y-15094D01*
X13904Y-15389D01*
X14290Y-15549D01*
X14707Y-15550D01*
X15094Y-15390D01*
X15389Y-15095D01*
X15549Y-14709D01*
X15550Y-14292D01*
X15550Y-16171D01*
X15534Y-16188D01*
X15500Y-16269D01*
X15466Y-16188D01*
X15311Y-16034D01*
X15109Y-15950D01*
X14891Y-15949D01*
X14688Y-16033D01*
X14534Y-16188D01*
X14450Y-16390D01*
X14449Y-16590D01*
X13090Y-17950D01*
X12891Y-17949D01*
X12688Y-18033D01*
X12547Y-18175D01*
X12384Y-18175D01*
X12147Y-17938D01*
X12147Y-11104D01*
X12138Y-10848D01*
X12058Y-10655D01*
X11953Y-10616D01*
X11883Y-10687D01*
X11883Y-10546D01*
X11844Y-10441D01*
X11604Y-10352D01*
X11348Y-10361D01*
X11155Y-10441D01*
X11116Y-10546D01*
X11500Y-10929D01*
X11883Y-10546D01*
X11883Y-10687D01*
X11570Y-11000D01*
X11953Y-11383D01*
X12058Y-11344D01*
X12147Y-11104D01*
X12147Y-17938D01*
X11825Y-17615D01*
X11825Y-13562D01*
X11864Y-13546D01*
X12045Y-13365D01*
X12143Y-13128D01*
X12143Y-12872D01*
X12046Y-12635D01*
X11883Y-12472D01*
X11883Y-11453D01*
X11500Y-11070D01*
X11429Y-11141D01*
X11429Y-11000D01*
X11046Y-10616D01*
X10941Y-10655D01*
X10852Y-10895D01*
X10861Y-11151D01*
X10941Y-11344D01*
X11046Y-11383D01*
X11429Y-11000D01*
X11429Y-11141D01*
X11116Y-11453D01*
X11155Y-11558D01*
X11395Y-11647D01*
X11651Y-11638D01*
X11844Y-11558D01*
X11883Y-11453D01*
X11883Y-12472D01*
X11865Y-12454D01*
X11628Y-12356D01*
X11372Y-12356D01*
X11135Y-12453D01*
X10954Y-12634D01*
X10856Y-12871D01*
X10856Y-13127D01*
X10953Y-13364D01*
X11134Y-13545D01*
X11175Y-13562D01*
X11175Y-17750D01*
X11199Y-17874D01*
X11270Y-17979D01*
X12020Y-18729D01*
X12020Y-18729D01*
X12125Y-18800D01*
X12125Y-18800D01*
X12225Y-18820D01*
X12249Y-18825D01*
X12249Y-18824D01*
X12250Y-18825D01*
X12547Y-18825D01*
X12688Y-18965D01*
X12890Y-19049D01*
X13108Y-19050D01*
X13311Y-18966D01*
X13465Y-18811D01*
X13549Y-18609D01*
X13550Y-18409D01*
X14909Y-17049D01*
X15108Y-17050D01*
X15311Y-16966D01*
X15465Y-16811D01*
X15499Y-16730D01*
X15533Y-16811D01*
X15688Y-16965D01*
X15890Y-17049D01*
X16108Y-17050D01*
X16311Y-16966D01*
X16465Y-16811D01*
X16497Y-16736D01*
X16518Y-16787D01*
X16614Y-16815D01*
X16929Y-16500D01*
X16614Y-16184D01*
X16518Y-16212D01*
X16499Y-16267D01*
X16466Y-16188D01*
X16325Y-16047D01*
X16325Y-12634D01*
X17524Y-11434D01*
X17634Y-11545D01*
X17871Y-11643D01*
X18127Y-11643D01*
X18364Y-11546D01*
X18545Y-11365D01*
X18643Y-11128D01*
X18643Y-10872D01*
X18643Y-12872D01*
X18546Y-12635D01*
X18365Y-12454D01*
X18128Y-12356D01*
X17872Y-12356D01*
X17635Y-12453D01*
X17454Y-12634D01*
X17356Y-12871D01*
X17356Y-13127D01*
X17453Y-13364D01*
X17634Y-13545D01*
X17675Y-13562D01*
X17675Y-16615D01*
X17554Y-16735D01*
X17430Y-16859D01*
X17385Y-16815D01*
X17481Y-16787D01*
X17554Y-16581D01*
X17543Y-16363D01*
X17481Y-16212D01*
X17385Y-16184D01*
X17315Y-16255D01*
X17315Y-16114D01*
X17287Y-16018D01*
X17081Y-15945D01*
X16863Y-15956D01*
X16712Y-16018D01*
X16684Y-16114D01*
X17000Y-16429D01*
X17315Y-16114D01*
X17315Y-16255D01*
X17070Y-16500D01*
X17076Y-16505D01*
X17005Y-16576D01*
X17000Y-16570D01*
X16684Y-16885D01*
X16712Y-16981D01*
X16918Y-17054D01*
X17136Y-17043D01*
X17287Y-16981D01*
X17315Y-16885D01*
X17315Y-16885D01*
X17359Y-16930D01*
X17315Y-16975D01*
X17115Y-17175D01*
X16250Y-17175D01*
X16125Y-17199D01*
X16020Y-17270D01*
X16020Y-17270D01*
X15770Y-17520D01*
X15699Y-17625D01*
X15675Y-17750D01*
X15675Y-18047D01*
X15534Y-18188D01*
X15502Y-18263D01*
X15481Y-18212D01*
X15385Y-18184D01*
X15315Y-18255D01*
X15315Y-18114D01*
X15287Y-18018D01*
X15081Y-17945D01*
X14863Y-17956D01*
X14712Y-18018D01*
X14684Y-18114D01*
X15000Y-18429D01*
X15315Y-18114D01*
X15315Y-18255D01*
X15070Y-18500D01*
X15385Y-18815D01*
X15481Y-18787D01*
X15500Y-18732D01*
X15533Y-18811D01*
X15688Y-18965D01*
X15890Y-19049D01*
X16108Y-19050D01*
X16311Y-18966D01*
X16465Y-18811D01*
X16499Y-18730D01*
X16533Y-18811D01*
X16688Y-18965D01*
X16890Y-19049D01*
X17108Y-19050D01*
X17311Y-18966D01*
X17465Y-18811D01*
X17549Y-18609D01*
X17550Y-18391D01*
X17466Y-18188D01*
X17311Y-18034D01*
X17109Y-17950D01*
X16891Y-17949D01*
X16688Y-18033D01*
X16534Y-18188D01*
X16500Y-18269D01*
X16466Y-18188D01*
X16325Y-18047D01*
X16325Y-17884D01*
X16384Y-17825D01*
X17250Y-17825D01*
X17374Y-17800D01*
X17374Y-17800D01*
X17479Y-17729D01*
X18229Y-16979D01*
X18229Y-16979D01*
X18229Y-16979D01*
X18300Y-16874D01*
X18300Y-16874D01*
X18320Y-16774D01*
X18325Y-16750D01*
X18324Y-16750D01*
X18325Y-16750D01*
X18325Y-13562D01*
X18364Y-13546D01*
X18545Y-13365D01*
X18643Y-13128D01*
X18643Y-12872D01*
X18643Y-19230D01*
X15315Y-19230D01*
X15315Y-18885D01*
X15000Y-18570D01*
X14929Y-18641D01*
X14929Y-18500D01*
X14614Y-18184D01*
X14518Y-18212D01*
X14445Y-18418D01*
X14456Y-18636D01*
X14518Y-18787D01*
X14614Y-18815D01*
X14929Y-18500D01*
X14929Y-18641D01*
X14684Y-18885D01*
X14712Y-18981D01*
X14918Y-19054D01*
X15136Y-19043D01*
X15287Y-18981D01*
X15315Y-18885D01*
X15315Y-19230D01*
X10269Y-19230D01*
X10269Y-10269D01*
X19230Y-10269D01*
X19230Y-19230D01*
G54D10*
G36*
X19230Y-28730D02*
X18643Y-28730D01*
X18643Y-22372D01*
X18643Y-20372D01*
X18546Y-20135D01*
X18365Y-19954D01*
X18128Y-19856D01*
X17872Y-19856D01*
X17635Y-19953D01*
X17454Y-20134D01*
X17432Y-20188D01*
X17375Y-20199D01*
X17270Y-20270D01*
X17270Y-20270D01*
X15804Y-21735D01*
X15804Y-20581D01*
X15793Y-20363D01*
X15731Y-20212D01*
X15635Y-20184D01*
X15565Y-20255D01*
X15565Y-20114D01*
X15537Y-20018D01*
X15331Y-19945D01*
X15113Y-19956D01*
X14962Y-20018D01*
X14934Y-20114D01*
X15250Y-20429D01*
X15565Y-20114D01*
X15565Y-20255D01*
X15320Y-20500D01*
X15635Y-20815D01*
X15731Y-20787D01*
X15804Y-20581D01*
X15804Y-21735D01*
X15770Y-21770D01*
X15699Y-21875D01*
X15675Y-22000D01*
X15675Y-25547D01*
X15565Y-25656D01*
X15565Y-20885D01*
X15250Y-20570D01*
X15179Y-20641D01*
X15179Y-20500D01*
X14864Y-20184D01*
X14800Y-20203D01*
X14800Y-20150D01*
X14762Y-20058D01*
X14691Y-19988D01*
X14599Y-19950D01*
X14500Y-19949D01*
X13900Y-19949D01*
X13808Y-19987D01*
X13738Y-20058D01*
X13700Y-20150D01*
X13699Y-20249D01*
X13699Y-20849D01*
X13737Y-20941D01*
X13808Y-21011D01*
X13900Y-21049D01*
X13925Y-21049D01*
X13925Y-21115D01*
X12770Y-22270D01*
X12699Y-22375D01*
X12675Y-22500D01*
X12675Y-25547D01*
X12534Y-25688D01*
X12450Y-25890D01*
X12449Y-26108D01*
X12533Y-26311D01*
X12688Y-26465D01*
X12890Y-26549D01*
X13108Y-26550D01*
X13311Y-26466D01*
X13465Y-26311D01*
X13549Y-26109D01*
X13550Y-25891D01*
X13466Y-25688D01*
X13325Y-25547D01*
X13325Y-22634D01*
X14479Y-21479D01*
X14550Y-21374D01*
X14550Y-21374D01*
X14575Y-21250D01*
X14575Y-21050D01*
X14599Y-21050D01*
X14691Y-21012D01*
X14761Y-20941D01*
X14799Y-20849D01*
X14800Y-20796D01*
X14864Y-20815D01*
X15179Y-20500D01*
X15179Y-20641D01*
X14934Y-20885D01*
X14962Y-20981D01*
X15168Y-21054D01*
X15386Y-21043D01*
X15537Y-20981D01*
X15565Y-20885D01*
X15565Y-25656D01*
X15550Y-25671D01*
X15550Y-23792D01*
X15390Y-23406D01*
X15095Y-23110D01*
X14709Y-22950D01*
X14292Y-22949D01*
X13906Y-23109D01*
X13610Y-23404D01*
X13450Y-23790D01*
X13449Y-24207D01*
X13609Y-24594D01*
X13904Y-24889D01*
X14290Y-25049D01*
X14707Y-25050D01*
X15094Y-24890D01*
X15389Y-24595D01*
X15549Y-24209D01*
X15550Y-23792D01*
X15550Y-25671D01*
X15534Y-25688D01*
X15500Y-25769D01*
X15466Y-25688D01*
X15311Y-25534D01*
X15109Y-25450D01*
X14891Y-25449D01*
X14688Y-25533D01*
X14534Y-25688D01*
X14450Y-25890D01*
X14449Y-26090D01*
X13090Y-27450D01*
X12891Y-27449D01*
X12688Y-27533D01*
X12547Y-27675D01*
X12384Y-27675D01*
X12147Y-27438D01*
X12147Y-20604D01*
X12138Y-20348D01*
X12058Y-20155D01*
X11953Y-20116D01*
X11883Y-20187D01*
X11883Y-20046D01*
X11844Y-19941D01*
X11604Y-19852D01*
X11348Y-19861D01*
X11155Y-19941D01*
X11116Y-20046D01*
X11500Y-20429D01*
X11883Y-20046D01*
X11883Y-20187D01*
X11570Y-20500D01*
X11953Y-20883D01*
X12058Y-20844D01*
X12147Y-20604D01*
X12147Y-27438D01*
X11825Y-27115D01*
X11825Y-23062D01*
X11864Y-23046D01*
X12045Y-22865D01*
X12143Y-22628D01*
X12143Y-22372D01*
X12046Y-22135D01*
X11883Y-21972D01*
X11883Y-20953D01*
X11500Y-20570D01*
X11429Y-20641D01*
X11429Y-20500D01*
X11046Y-20116D01*
X10941Y-20155D01*
X10852Y-20395D01*
X10861Y-20651D01*
X10941Y-20844D01*
X11046Y-20883D01*
X11429Y-20500D01*
X11429Y-20641D01*
X11116Y-20953D01*
X11155Y-21058D01*
X11395Y-21147D01*
X11651Y-21138D01*
X11844Y-21058D01*
X11883Y-20953D01*
X11883Y-21972D01*
X11865Y-21954D01*
X11628Y-21856D01*
X11372Y-21856D01*
X11135Y-21953D01*
X10954Y-22134D01*
X10856Y-22371D01*
X10856Y-22627D01*
X10953Y-22864D01*
X11134Y-23045D01*
X11175Y-23062D01*
X11175Y-27250D01*
X11199Y-27374D01*
X11270Y-27479D01*
X12020Y-28229D01*
X12020Y-28229D01*
X12125Y-28300D01*
X12125Y-28300D01*
X12225Y-28320D01*
X12249Y-28325D01*
X12249Y-28324D01*
X12250Y-28325D01*
X12547Y-28325D01*
X12688Y-28465D01*
X12890Y-28549D01*
X13108Y-28550D01*
X13311Y-28466D01*
X13465Y-28311D01*
X13549Y-28109D01*
X13550Y-27909D01*
X14909Y-26549D01*
X15108Y-26550D01*
X15311Y-26466D01*
X15465Y-26311D01*
X15499Y-26230D01*
X15533Y-26311D01*
X15688Y-26465D01*
X15890Y-26549D01*
X16108Y-26550D01*
X16311Y-26466D01*
X16465Y-26311D01*
X16497Y-26236D01*
X16518Y-26287D01*
X16614Y-26315D01*
X16929Y-26000D01*
X16614Y-25684D01*
X16518Y-25712D01*
X16499Y-25767D01*
X16466Y-25688D01*
X16325Y-25547D01*
X16325Y-22134D01*
X17524Y-20934D01*
X17634Y-21045D01*
X17871Y-21143D01*
X18127Y-21143D01*
X18364Y-21046D01*
X18545Y-20865D01*
X18643Y-20628D01*
X18643Y-20372D01*
X18643Y-22372D01*
X18546Y-22135D01*
X18365Y-21954D01*
X18128Y-21856D01*
X17872Y-21856D01*
X17635Y-21953D01*
X17454Y-22134D01*
X17356Y-22371D01*
X17356Y-22627D01*
X17453Y-22864D01*
X17634Y-23045D01*
X17675Y-23062D01*
X17675Y-26115D01*
X17554Y-26235D01*
X17430Y-26359D01*
X17385Y-26315D01*
X17481Y-26287D01*
X17554Y-26081D01*
X17543Y-25863D01*
X17481Y-25712D01*
X17385Y-25684D01*
X17315Y-25755D01*
X17315Y-25614D01*
X17287Y-25518D01*
X17081Y-25445D01*
X16863Y-25456D01*
X16712Y-25518D01*
X16684Y-25614D01*
X17000Y-25929D01*
X17315Y-25614D01*
X17315Y-25755D01*
X17070Y-26000D01*
X17076Y-26005D01*
X17005Y-26076D01*
X17000Y-26070D01*
X16684Y-26385D01*
X16712Y-26481D01*
X16918Y-26554D01*
X17136Y-26543D01*
X17287Y-26481D01*
X17315Y-26385D01*
X17315Y-26385D01*
X17359Y-26430D01*
X17315Y-26475D01*
X17115Y-26675D01*
X16500Y-26675D01*
X16375Y-26699D01*
X16333Y-26727D01*
X16270Y-26770D01*
X16270Y-26770D01*
X15770Y-27270D01*
X15699Y-27375D01*
X15675Y-27500D01*
X15675Y-27547D01*
X15534Y-27688D01*
X15502Y-27763D01*
X15481Y-27712D01*
X15385Y-27684D01*
X15315Y-27755D01*
X15315Y-27614D01*
X15287Y-27518D01*
X15081Y-27445D01*
X14863Y-27456D01*
X14712Y-27518D01*
X14684Y-27614D01*
X15000Y-27929D01*
X15315Y-27614D01*
X15315Y-27755D01*
X15070Y-28000D01*
X15385Y-28315D01*
X15481Y-28287D01*
X15500Y-28232D01*
X15533Y-28311D01*
X15688Y-28465D01*
X15890Y-28549D01*
X16108Y-28550D01*
X16311Y-28466D01*
X16465Y-28311D01*
X16499Y-28230D01*
X16533Y-28311D01*
X16688Y-28465D01*
X16890Y-28549D01*
X17108Y-28550D01*
X17311Y-28466D01*
X17465Y-28311D01*
X17549Y-28109D01*
X17550Y-27891D01*
X17466Y-27688D01*
X17311Y-27534D01*
X17109Y-27450D01*
X16891Y-27449D01*
X16688Y-27533D01*
X16534Y-27688D01*
X16500Y-27769D01*
X16466Y-27688D01*
X16368Y-27590D01*
X16634Y-27325D01*
X17250Y-27325D01*
X17374Y-27300D01*
X17374Y-27300D01*
X17479Y-27229D01*
X18229Y-26479D01*
X18229Y-26479D01*
X18229Y-26479D01*
X18300Y-26374D01*
X18300Y-26374D01*
X18320Y-26274D01*
X18325Y-26250D01*
X18324Y-26250D01*
X18325Y-26250D01*
X18325Y-23062D01*
X18364Y-23046D01*
X18545Y-22865D01*
X18643Y-22628D01*
X18643Y-22372D01*
X18643Y-28730D01*
X15315Y-28730D01*
X15315Y-28385D01*
X15000Y-28070D01*
X14929Y-28141D01*
X14929Y-28000D01*
X14614Y-27684D01*
X14518Y-27712D01*
X14445Y-27918D01*
X14456Y-28136D01*
X14518Y-28287D01*
X14614Y-28315D01*
X14929Y-28000D01*
X14929Y-28141D01*
X14684Y-28385D01*
X14712Y-28481D01*
X14918Y-28554D01*
X15136Y-28543D01*
X15287Y-28481D01*
X15315Y-28385D01*
X15315Y-28730D01*
X10269Y-28730D01*
X10269Y-19769D01*
X19230Y-19769D01*
X19230Y-28730D01*
X19230Y-28730D01*
G37*
G54D16*
X19230Y-28730D02*
X18643Y-28730D01*
X18643Y-22372D01*
X18643Y-20372D01*
X18546Y-20135D01*
X18365Y-19954D01*
X18128Y-19856D01*
X17872Y-19856D01*
X17635Y-19953D01*
X17454Y-20134D01*
X17432Y-20188D01*
X17375Y-20199D01*
X17270Y-20270D01*
X17270Y-20270D01*
X15804Y-21735D01*
X15804Y-20581D01*
X15793Y-20363D01*
X15731Y-20212D01*
X15635Y-20184D01*
X15565Y-20255D01*
X15565Y-20114D01*
X15537Y-20018D01*
X15331Y-19945D01*
X15113Y-19956D01*
X14962Y-20018D01*
X14934Y-20114D01*
X15250Y-20429D01*
X15565Y-20114D01*
X15565Y-20255D01*
X15320Y-20500D01*
X15635Y-20815D01*
X15731Y-20787D01*
X15804Y-20581D01*
X15804Y-21735D01*
X15770Y-21770D01*
X15699Y-21875D01*
X15675Y-22000D01*
X15675Y-25547D01*
X15565Y-25656D01*
X15565Y-20885D01*
X15250Y-20570D01*
X15179Y-20641D01*
X15179Y-20500D01*
X14864Y-20184D01*
X14800Y-20203D01*
X14800Y-20150D01*
X14762Y-20058D01*
X14691Y-19988D01*
X14599Y-19950D01*
X14500Y-19949D01*
X13900Y-19949D01*
X13808Y-19987D01*
X13738Y-20058D01*
X13700Y-20150D01*
X13699Y-20249D01*
X13699Y-20849D01*
X13737Y-20941D01*
X13808Y-21011D01*
X13900Y-21049D01*
X13925Y-21049D01*
X13925Y-21115D01*
X12770Y-22270D01*
X12699Y-22375D01*
X12675Y-22500D01*
X12675Y-25547D01*
X12534Y-25688D01*
X12450Y-25890D01*
X12449Y-26108D01*
X12533Y-26311D01*
X12688Y-26465D01*
X12890Y-26549D01*
X13108Y-26550D01*
X13311Y-26466D01*
X13465Y-26311D01*
X13549Y-26109D01*
X13550Y-25891D01*
X13466Y-25688D01*
X13325Y-25547D01*
X13325Y-22634D01*
X14479Y-21479D01*
X14550Y-21374D01*
X14550Y-21374D01*
X14575Y-21250D01*
X14575Y-21050D01*
X14599Y-21050D01*
X14691Y-21012D01*
X14761Y-20941D01*
X14799Y-20849D01*
X14800Y-20796D01*
X14864Y-20815D01*
X15179Y-20500D01*
X15179Y-20641D01*
X14934Y-20885D01*
X14962Y-20981D01*
X15168Y-21054D01*
X15386Y-21043D01*
X15537Y-20981D01*
X15565Y-20885D01*
X15565Y-25656D01*
X15550Y-25671D01*
X15550Y-23792D01*
X15390Y-23406D01*
X15095Y-23110D01*
X14709Y-22950D01*
X14292Y-22949D01*
X13906Y-23109D01*
X13610Y-23404D01*
X13450Y-23790D01*
X13449Y-24207D01*
X13609Y-24594D01*
X13904Y-24889D01*
X14290Y-25049D01*
X14707Y-25050D01*
X15094Y-24890D01*
X15389Y-24595D01*
X15549Y-24209D01*
X15550Y-23792D01*
X15550Y-25671D01*
X15534Y-25688D01*
X15500Y-25769D01*
X15466Y-25688D01*
X15311Y-25534D01*
X15109Y-25450D01*
X14891Y-25449D01*
X14688Y-25533D01*
X14534Y-25688D01*
X14450Y-25890D01*
X14449Y-26090D01*
X13090Y-27450D01*
X12891Y-27449D01*
X12688Y-27533D01*
X12547Y-27675D01*
X12384Y-27675D01*
X12147Y-27438D01*
X12147Y-20604D01*
X12138Y-20348D01*
X12058Y-20155D01*
X11953Y-20116D01*
X11883Y-20187D01*
X11883Y-20046D01*
X11844Y-19941D01*
X11604Y-19852D01*
X11348Y-19861D01*
X11155Y-19941D01*
X11116Y-20046D01*
X11500Y-20429D01*
X11883Y-20046D01*
X11883Y-20187D01*
X11570Y-20500D01*
X11953Y-20883D01*
X12058Y-20844D01*
X12147Y-20604D01*
X12147Y-27438D01*
X11825Y-27115D01*
X11825Y-23062D01*
X11864Y-23046D01*
X12045Y-22865D01*
X12143Y-22628D01*
X12143Y-22372D01*
X12046Y-22135D01*
X11883Y-21972D01*
X11883Y-20953D01*
X11500Y-20570D01*
X11429Y-20641D01*
X11429Y-20500D01*
X11046Y-20116D01*
X10941Y-20155D01*
X10852Y-20395D01*
X10861Y-20651D01*
X10941Y-20844D01*
X11046Y-20883D01*
X11429Y-20500D01*
X11429Y-20641D01*
X11116Y-20953D01*
X11155Y-21058D01*
X11395Y-21147D01*
X11651Y-21138D01*
X11844Y-21058D01*
X11883Y-20953D01*
X11883Y-21972D01*
X11865Y-21954D01*
X11628Y-21856D01*
X11372Y-21856D01*
X11135Y-21953D01*
X10954Y-22134D01*
X10856Y-22371D01*
X10856Y-22627D01*
X10953Y-22864D01*
X11134Y-23045D01*
X11175Y-23062D01*
X11175Y-27250D01*
X11199Y-27374D01*
X11270Y-27479D01*
X12020Y-28229D01*
X12020Y-28229D01*
X12125Y-28300D01*
X12125Y-28300D01*
X12225Y-28320D01*
X12249Y-28325D01*
X12249Y-28324D01*
X12250Y-28325D01*
X12547Y-28325D01*
X12688Y-28465D01*
X12890Y-28549D01*
X13108Y-28550D01*
X13311Y-28466D01*
X13465Y-28311D01*
X13549Y-28109D01*
X13550Y-27909D01*
X14909Y-26549D01*
X15108Y-26550D01*
X15311Y-26466D01*
X15465Y-26311D01*
X15499Y-26230D01*
X15533Y-26311D01*
X15688Y-26465D01*
X15890Y-26549D01*
X16108Y-26550D01*
X16311Y-26466D01*
X16465Y-26311D01*
X16497Y-26236D01*
X16518Y-26287D01*
X16614Y-26315D01*
X16929Y-26000D01*
X16614Y-25684D01*
X16518Y-25712D01*
X16499Y-25767D01*
X16466Y-25688D01*
X16325Y-25547D01*
X16325Y-22134D01*
X17524Y-20934D01*
X17634Y-21045D01*
X17871Y-21143D01*
X18127Y-21143D01*
X18364Y-21046D01*
X18545Y-20865D01*
X18643Y-20628D01*
X18643Y-20372D01*
X18643Y-22372D01*
X18546Y-22135D01*
X18365Y-21954D01*
X18128Y-21856D01*
X17872Y-21856D01*
X17635Y-21953D01*
X17454Y-22134D01*
X17356Y-22371D01*
X17356Y-22627D01*
X17453Y-22864D01*
X17634Y-23045D01*
X17675Y-23062D01*
X17675Y-26115D01*
X17554Y-26235D01*
X17430Y-26359D01*
X17385Y-26315D01*
X17481Y-26287D01*
X17554Y-26081D01*
X17543Y-25863D01*
X17481Y-25712D01*
X17385Y-25684D01*
X17315Y-25755D01*
X17315Y-25614D01*
X17287Y-25518D01*
X17081Y-25445D01*
X16863Y-25456D01*
X16712Y-25518D01*
X16684Y-25614D01*
X17000Y-25929D01*
X17315Y-25614D01*
X17315Y-25755D01*
X17070Y-26000D01*
X17076Y-26005D01*
X17005Y-26076D01*
X17000Y-26070D01*
X16684Y-26385D01*
X16712Y-26481D01*
X16918Y-26554D01*
X17136Y-26543D01*
X17287Y-26481D01*
X17315Y-26385D01*
X17315Y-26385D01*
X17359Y-26430D01*
X17315Y-26475D01*
X17115Y-26675D01*
X16500Y-26675D01*
X16375Y-26699D01*
X16333Y-26727D01*
X16270Y-26770D01*
X16270Y-26770D01*
X15770Y-27270D01*
X15699Y-27375D01*
X15675Y-27500D01*
X15675Y-27547D01*
X15534Y-27688D01*
X15502Y-27763D01*
X15481Y-27712D01*
X15385Y-27684D01*
X15315Y-27755D01*
X15315Y-27614D01*
X15287Y-27518D01*
X15081Y-27445D01*
X14863Y-27456D01*
X14712Y-27518D01*
X14684Y-27614D01*
X15000Y-27929D01*
X15315Y-27614D01*
X15315Y-27755D01*
X15070Y-28000D01*
X15385Y-28315D01*
X15481Y-28287D01*
X15500Y-28232D01*
X15533Y-28311D01*
X15688Y-28465D01*
X15890Y-28549D01*
X16108Y-28550D01*
X16311Y-28466D01*
X16465Y-28311D01*
X16499Y-28230D01*
X16533Y-28311D01*
X16688Y-28465D01*
X16890Y-28549D01*
X17108Y-28550D01*
X17311Y-28466D01*
X17465Y-28311D01*
X17549Y-28109D01*
X17550Y-27891D01*
X17466Y-27688D01*
X17311Y-27534D01*
X17109Y-27450D01*
X16891Y-27449D01*
X16688Y-27533D01*
X16534Y-27688D01*
X16500Y-27769D01*
X16466Y-27688D01*
X16368Y-27590D01*
X16634Y-27325D01*
X17250Y-27325D01*
X17374Y-27300D01*
X17374Y-27300D01*
X17479Y-27229D01*
X18229Y-26479D01*
X18229Y-26479D01*
X18229Y-26479D01*
X18300Y-26374D01*
X18300Y-26374D01*
X18320Y-26274D01*
X18325Y-26250D01*
X18324Y-26250D01*
X18325Y-26250D01*
X18325Y-23062D01*
X18364Y-23046D01*
X18545Y-22865D01*
X18643Y-22628D01*
X18643Y-22372D01*
X18643Y-28730D01*
X15315Y-28730D01*
X15315Y-28385D01*
X15000Y-28070D01*
X14929Y-28141D01*
X14929Y-28000D01*
X14614Y-27684D01*
X14518Y-27712D01*
X14445Y-27918D01*
X14456Y-28136D01*
X14518Y-28287D01*
X14614Y-28315D01*
X14929Y-28000D01*
X14929Y-28141D01*
X14684Y-28385D01*
X14712Y-28481D01*
X14918Y-28554D01*
X15136Y-28543D01*
X15287Y-28481D01*
X15315Y-28385D01*
X15315Y-28730D01*
X10269Y-28730D01*
X10269Y-19769D01*
X19230Y-19769D01*
X19230Y-28730D01*
G54D10*
G36*
X28730Y-19230D02*
X28143Y-19230D01*
X28143Y-12872D01*
X28143Y-10872D01*
X28046Y-10635D01*
X27865Y-10454D01*
X27628Y-10356D01*
X27372Y-10356D01*
X27135Y-10453D01*
X26954Y-10634D01*
X26937Y-10675D01*
X26750Y-10675D01*
X26625Y-10699D01*
X26520Y-10770D01*
X25304Y-11985D01*
X25304Y-11081D01*
X25293Y-10863D01*
X25231Y-10712D01*
X25135Y-10684D01*
X25065Y-10755D01*
X25065Y-10614D01*
X25037Y-10518D01*
X24831Y-10445D01*
X24613Y-10456D01*
X24462Y-10518D01*
X24434Y-10614D01*
X24750Y-10929D01*
X25065Y-10614D01*
X25065Y-10755D01*
X24820Y-11000D01*
X25135Y-11315D01*
X25231Y-11287D01*
X25304Y-11081D01*
X25304Y-11985D01*
X25270Y-12020D01*
X25199Y-12125D01*
X25175Y-12250D01*
X25175Y-16047D01*
X25065Y-16156D01*
X25065Y-11385D01*
X24750Y-11070D01*
X24679Y-11141D01*
X24679Y-11000D01*
X24364Y-10684D01*
X24300Y-10703D01*
X24300Y-10650D01*
X24262Y-10558D01*
X24191Y-10488D01*
X24099Y-10450D01*
X24000Y-10449D01*
X23400Y-10449D01*
X23308Y-10487D01*
X23238Y-10558D01*
X23200Y-10650D01*
X23199Y-10749D01*
X23199Y-11349D01*
X23237Y-11441D01*
X23308Y-11511D01*
X23400Y-11549D01*
X23425Y-11549D01*
X23425Y-11615D01*
X22270Y-12770D01*
X22199Y-12875D01*
X22175Y-13000D01*
X22175Y-16047D01*
X22034Y-16188D01*
X21950Y-16390D01*
X21949Y-16608D01*
X22033Y-16811D01*
X22188Y-16965D01*
X22390Y-17049D01*
X22608Y-17050D01*
X22811Y-16966D01*
X22965Y-16811D01*
X23049Y-16609D01*
X23050Y-16391D01*
X22966Y-16188D01*
X22825Y-16047D01*
X22825Y-13134D01*
X23979Y-11979D01*
X24050Y-11874D01*
X24050Y-11874D01*
X24075Y-11750D01*
X24075Y-11550D01*
X24099Y-11550D01*
X24191Y-11512D01*
X24261Y-11441D01*
X24299Y-11349D01*
X24300Y-11296D01*
X24364Y-11315D01*
X24679Y-11000D01*
X24679Y-11141D01*
X24434Y-11385D01*
X24462Y-11481D01*
X24668Y-11554D01*
X24886Y-11543D01*
X25037Y-11481D01*
X25065Y-11385D01*
X25065Y-16156D01*
X25050Y-16171D01*
X25050Y-14292D01*
X24890Y-13906D01*
X24595Y-13610D01*
X24209Y-13450D01*
X23792Y-13449D01*
X23406Y-13609D01*
X23110Y-13904D01*
X22950Y-14290D01*
X22949Y-14707D01*
X23109Y-15094D01*
X23404Y-15389D01*
X23790Y-15549D01*
X24207Y-15550D01*
X24594Y-15390D01*
X24889Y-15095D01*
X25049Y-14709D01*
X25050Y-14292D01*
X25050Y-16171D01*
X25034Y-16188D01*
X25000Y-16269D01*
X24966Y-16188D01*
X24811Y-16034D01*
X24609Y-15950D01*
X24391Y-15949D01*
X24188Y-16033D01*
X24034Y-16188D01*
X23950Y-16390D01*
X23949Y-16590D01*
X22590Y-17950D01*
X22391Y-17949D01*
X22188Y-18033D01*
X22090Y-18131D01*
X21647Y-17688D01*
X21647Y-11104D01*
X21638Y-10848D01*
X21558Y-10655D01*
X21453Y-10616D01*
X21383Y-10687D01*
X21383Y-10546D01*
X21344Y-10441D01*
X21104Y-10352D01*
X20848Y-10361D01*
X20655Y-10441D01*
X20616Y-10546D01*
X21000Y-10929D01*
X21383Y-10546D01*
X21383Y-10687D01*
X21070Y-11000D01*
X21453Y-11383D01*
X21558Y-11344D01*
X21647Y-11104D01*
X21647Y-17688D01*
X21325Y-17365D01*
X21325Y-13562D01*
X21364Y-13546D01*
X21545Y-13365D01*
X21643Y-13128D01*
X21643Y-12872D01*
X21546Y-12635D01*
X21383Y-12472D01*
X21383Y-11453D01*
X21000Y-11070D01*
X20929Y-11141D01*
X20929Y-11000D01*
X20546Y-10616D01*
X20441Y-10655D01*
X20352Y-10895D01*
X20361Y-11151D01*
X20441Y-11344D01*
X20546Y-11383D01*
X20929Y-11000D01*
X20929Y-11141D01*
X20616Y-11453D01*
X20655Y-11558D01*
X20895Y-11647D01*
X21151Y-11638D01*
X21344Y-11558D01*
X21383Y-11453D01*
X21383Y-12472D01*
X21365Y-12454D01*
X21128Y-12356D01*
X20872Y-12356D01*
X20635Y-12453D01*
X20454Y-12634D01*
X20356Y-12871D01*
X20356Y-13127D01*
X20453Y-13364D01*
X20634Y-13545D01*
X20675Y-13562D01*
X20675Y-17500D01*
X20699Y-17624D01*
X20770Y-17729D01*
X21770Y-18729D01*
X21770Y-18729D01*
X21875Y-18800D01*
X21875Y-18800D01*
X22000Y-18825D01*
X22047Y-18825D01*
X22188Y-18965D01*
X22390Y-19049D01*
X22608Y-19050D01*
X22811Y-18966D01*
X22965Y-18811D01*
X23049Y-18609D01*
X23050Y-18409D01*
X24409Y-17049D01*
X24608Y-17050D01*
X24811Y-16966D01*
X24965Y-16811D01*
X24999Y-16730D01*
X25033Y-16811D01*
X25188Y-16965D01*
X25390Y-17049D01*
X25608Y-17050D01*
X25811Y-16966D01*
X25965Y-16811D01*
X25997Y-16736D01*
X26018Y-16787D01*
X26114Y-16815D01*
X26429Y-16500D01*
X26114Y-16184D01*
X26018Y-16212D01*
X25999Y-16267D01*
X25966Y-16188D01*
X25825Y-16047D01*
X25825Y-12384D01*
X26884Y-11325D01*
X26937Y-11325D01*
X26953Y-11364D01*
X27134Y-11545D01*
X27371Y-11643D01*
X27627Y-11643D01*
X27864Y-11546D01*
X28045Y-11365D01*
X28143Y-11128D01*
X28143Y-10872D01*
X28143Y-12872D01*
X28046Y-12635D01*
X27865Y-12454D01*
X27628Y-12356D01*
X27372Y-12356D01*
X27135Y-12453D01*
X26954Y-12634D01*
X26856Y-12871D01*
X26856Y-13127D01*
X26953Y-13364D01*
X27134Y-13545D01*
X27175Y-13562D01*
X27175Y-16865D01*
X27054Y-16985D01*
X27054Y-16581D01*
X27043Y-16363D01*
X26981Y-16212D01*
X26885Y-16184D01*
X26815Y-16255D01*
X26815Y-16114D01*
X26787Y-16018D01*
X26581Y-15945D01*
X26363Y-15956D01*
X26212Y-16018D01*
X26184Y-16114D01*
X26500Y-16429D01*
X26815Y-16114D01*
X26815Y-16255D01*
X26570Y-16500D01*
X26885Y-16815D01*
X26981Y-16787D01*
X27054Y-16581D01*
X27054Y-16985D01*
X26865Y-17175D01*
X26815Y-17175D01*
X26815Y-16885D01*
X26500Y-16570D01*
X26184Y-16885D01*
X26212Y-16981D01*
X26418Y-17054D01*
X26636Y-17043D01*
X26787Y-16981D01*
X26815Y-16885D01*
X26815Y-17175D01*
X26000Y-17175D01*
X25875Y-17199D01*
X25833Y-17227D01*
X25770Y-17270D01*
X25770Y-17270D01*
X25270Y-17770D01*
X25199Y-17875D01*
X25175Y-18000D01*
X25175Y-18047D01*
X25034Y-18188D01*
X25002Y-18263D01*
X24981Y-18212D01*
X24885Y-18184D01*
X24815Y-18255D01*
X24815Y-18114D01*
X24787Y-18018D01*
X24581Y-17945D01*
X24363Y-17956D01*
X24212Y-18018D01*
X24184Y-18114D01*
X24500Y-18429D01*
X24815Y-18114D01*
X24815Y-18255D01*
X24570Y-18500D01*
X24885Y-18815D01*
X24981Y-18787D01*
X25000Y-18732D01*
X25033Y-18811D01*
X25188Y-18965D01*
X25390Y-19049D01*
X25608Y-19050D01*
X25811Y-18966D01*
X25965Y-18811D01*
X25999Y-18730D01*
X26033Y-18811D01*
X26188Y-18965D01*
X26390Y-19049D01*
X26608Y-19050D01*
X26811Y-18966D01*
X26965Y-18811D01*
X27049Y-18609D01*
X27050Y-18391D01*
X26966Y-18188D01*
X26811Y-18034D01*
X26609Y-17950D01*
X26391Y-17949D01*
X26188Y-18033D01*
X26034Y-18188D01*
X26000Y-18269D01*
X25966Y-18188D01*
X25868Y-18090D01*
X26134Y-17825D01*
X27000Y-17825D01*
X27124Y-17800D01*
X27124Y-17800D01*
X27229Y-17729D01*
X27729Y-17229D01*
X27729Y-17229D01*
X27729Y-17229D01*
X27772Y-17166D01*
X27800Y-17124D01*
X27800Y-17124D01*
X27825Y-17000D01*
X27825Y-13562D01*
X27864Y-13546D01*
X28045Y-13365D01*
X28143Y-13128D01*
X28143Y-12872D01*
X28143Y-19230D01*
X24815Y-19230D01*
X24815Y-18885D01*
X24500Y-18570D01*
X24429Y-18641D01*
X24429Y-18500D01*
X24114Y-18184D01*
X24018Y-18212D01*
X23945Y-18418D01*
X23956Y-18636D01*
X24018Y-18787D01*
X24114Y-18815D01*
X24429Y-18500D01*
X24429Y-18641D01*
X24184Y-18885D01*
X24212Y-18981D01*
X24418Y-19054D01*
X24636Y-19043D01*
X24787Y-18981D01*
X24815Y-18885D01*
X24815Y-19230D01*
X19769Y-19230D01*
X19769Y-10269D01*
X28730Y-10269D01*
X28730Y-19230D01*
X28730Y-19230D01*
G37*
G54D16*
X28730Y-19230D02*
X28143Y-19230D01*
X28143Y-12872D01*
X28143Y-10872D01*
X28046Y-10635D01*
X27865Y-10454D01*
X27628Y-10356D01*
X27372Y-10356D01*
X27135Y-10453D01*
X26954Y-10634D01*
X26937Y-10675D01*
X26750Y-10675D01*
X26625Y-10699D01*
X26520Y-10770D01*
X25304Y-11985D01*
X25304Y-11081D01*
X25293Y-10863D01*
X25231Y-10712D01*
X25135Y-10684D01*
X25065Y-10755D01*
X25065Y-10614D01*
X25037Y-10518D01*
X24831Y-10445D01*
X24613Y-10456D01*
X24462Y-10518D01*
X24434Y-10614D01*
X24750Y-10929D01*
X25065Y-10614D01*
X25065Y-10755D01*
X24820Y-11000D01*
X25135Y-11315D01*
X25231Y-11287D01*
X25304Y-11081D01*
X25304Y-11985D01*
X25270Y-12020D01*
X25199Y-12125D01*
X25175Y-12250D01*
X25175Y-16047D01*
X25065Y-16156D01*
X25065Y-11385D01*
X24750Y-11070D01*
X24679Y-11141D01*
X24679Y-11000D01*
X24364Y-10684D01*
X24300Y-10703D01*
X24300Y-10650D01*
X24262Y-10558D01*
X24191Y-10488D01*
X24099Y-10450D01*
X24000Y-10449D01*
X23400Y-10449D01*
X23308Y-10487D01*
X23238Y-10558D01*
X23200Y-10650D01*
X23199Y-10749D01*
X23199Y-11349D01*
X23237Y-11441D01*
X23308Y-11511D01*
X23400Y-11549D01*
X23425Y-11549D01*
X23425Y-11615D01*
X22270Y-12770D01*
X22199Y-12875D01*
X22175Y-13000D01*
X22175Y-16047D01*
X22034Y-16188D01*
X21950Y-16390D01*
X21949Y-16608D01*
X22033Y-16811D01*
X22188Y-16965D01*
X22390Y-17049D01*
X22608Y-17050D01*
X22811Y-16966D01*
X22965Y-16811D01*
X23049Y-16609D01*
X23050Y-16391D01*
X22966Y-16188D01*
X22825Y-16047D01*
X22825Y-13134D01*
X23979Y-11979D01*
X24050Y-11874D01*
X24050Y-11874D01*
X24075Y-11750D01*
X24075Y-11550D01*
X24099Y-11550D01*
X24191Y-11512D01*
X24261Y-11441D01*
X24299Y-11349D01*
X24300Y-11296D01*
X24364Y-11315D01*
X24679Y-11000D01*
X24679Y-11141D01*
X24434Y-11385D01*
X24462Y-11481D01*
X24668Y-11554D01*
X24886Y-11543D01*
X25037Y-11481D01*
X25065Y-11385D01*
X25065Y-16156D01*
X25050Y-16171D01*
X25050Y-14292D01*
X24890Y-13906D01*
X24595Y-13610D01*
X24209Y-13450D01*
X23792Y-13449D01*
X23406Y-13609D01*
X23110Y-13904D01*
X22950Y-14290D01*
X22949Y-14707D01*
X23109Y-15094D01*
X23404Y-15389D01*
X23790Y-15549D01*
X24207Y-15550D01*
X24594Y-15390D01*
X24889Y-15095D01*
X25049Y-14709D01*
X25050Y-14292D01*
X25050Y-16171D01*
X25034Y-16188D01*
X25000Y-16269D01*
X24966Y-16188D01*
X24811Y-16034D01*
X24609Y-15950D01*
X24391Y-15949D01*
X24188Y-16033D01*
X24034Y-16188D01*
X23950Y-16390D01*
X23949Y-16590D01*
X22590Y-17950D01*
X22391Y-17949D01*
X22188Y-18033D01*
X22090Y-18131D01*
X21647Y-17688D01*
X21647Y-11104D01*
X21638Y-10848D01*
X21558Y-10655D01*
X21453Y-10616D01*
X21383Y-10687D01*
X21383Y-10546D01*
X21344Y-10441D01*
X21104Y-10352D01*
X20848Y-10361D01*
X20655Y-10441D01*
X20616Y-10546D01*
X21000Y-10929D01*
X21383Y-10546D01*
X21383Y-10687D01*
X21070Y-11000D01*
X21453Y-11383D01*
X21558Y-11344D01*
X21647Y-11104D01*
X21647Y-17688D01*
X21325Y-17365D01*
X21325Y-13562D01*
X21364Y-13546D01*
X21545Y-13365D01*
X21643Y-13128D01*
X21643Y-12872D01*
X21546Y-12635D01*
X21383Y-12472D01*
X21383Y-11453D01*
X21000Y-11070D01*
X20929Y-11141D01*
X20929Y-11000D01*
X20546Y-10616D01*
X20441Y-10655D01*
X20352Y-10895D01*
X20361Y-11151D01*
X20441Y-11344D01*
X20546Y-11383D01*
X20929Y-11000D01*
X20929Y-11141D01*
X20616Y-11453D01*
X20655Y-11558D01*
X20895Y-11647D01*
X21151Y-11638D01*
X21344Y-11558D01*
X21383Y-11453D01*
X21383Y-12472D01*
X21365Y-12454D01*
X21128Y-12356D01*
X20872Y-12356D01*
X20635Y-12453D01*
X20454Y-12634D01*
X20356Y-12871D01*
X20356Y-13127D01*
X20453Y-13364D01*
X20634Y-13545D01*
X20675Y-13562D01*
X20675Y-17500D01*
X20699Y-17624D01*
X20770Y-17729D01*
X21770Y-18729D01*
X21770Y-18729D01*
X21875Y-18800D01*
X21875Y-18800D01*
X22000Y-18825D01*
X22047Y-18825D01*
X22188Y-18965D01*
X22390Y-19049D01*
X22608Y-19050D01*
X22811Y-18966D01*
X22965Y-18811D01*
X23049Y-18609D01*
X23050Y-18409D01*
X24409Y-17049D01*
X24608Y-17050D01*
X24811Y-16966D01*
X24965Y-16811D01*
X24999Y-16730D01*
X25033Y-16811D01*
X25188Y-16965D01*
X25390Y-17049D01*
X25608Y-17050D01*
X25811Y-16966D01*
X25965Y-16811D01*
X25997Y-16736D01*
X26018Y-16787D01*
X26114Y-16815D01*
X26429Y-16500D01*
X26114Y-16184D01*
X26018Y-16212D01*
X25999Y-16267D01*
X25966Y-16188D01*
X25825Y-16047D01*
X25825Y-12384D01*
X26884Y-11325D01*
X26937Y-11325D01*
X26953Y-11364D01*
X27134Y-11545D01*
X27371Y-11643D01*
X27627Y-11643D01*
X27864Y-11546D01*
X28045Y-11365D01*
X28143Y-11128D01*
X28143Y-10872D01*
X28143Y-12872D01*
X28046Y-12635D01*
X27865Y-12454D01*
X27628Y-12356D01*
X27372Y-12356D01*
X27135Y-12453D01*
X26954Y-12634D01*
X26856Y-12871D01*
X26856Y-13127D01*
X26953Y-13364D01*
X27134Y-13545D01*
X27175Y-13562D01*
X27175Y-16865D01*
X27054Y-16985D01*
X27054Y-16581D01*
X27043Y-16363D01*
X26981Y-16212D01*
X26885Y-16184D01*
X26815Y-16255D01*
X26815Y-16114D01*
X26787Y-16018D01*
X26581Y-15945D01*
X26363Y-15956D01*
X26212Y-16018D01*
X26184Y-16114D01*
X26500Y-16429D01*
X26815Y-16114D01*
X26815Y-16255D01*
X26570Y-16500D01*
X26885Y-16815D01*
X26981Y-16787D01*
X27054Y-16581D01*
X27054Y-16985D01*
X26865Y-17175D01*
X26815Y-17175D01*
X26815Y-16885D01*
X26500Y-16570D01*
X26184Y-16885D01*
X26212Y-16981D01*
X26418Y-17054D01*
X26636Y-17043D01*
X26787Y-16981D01*
X26815Y-16885D01*
X26815Y-17175D01*
X26000Y-17175D01*
X25875Y-17199D01*
X25833Y-17227D01*
X25770Y-17270D01*
X25770Y-17270D01*
X25270Y-17770D01*
X25199Y-17875D01*
X25175Y-18000D01*
X25175Y-18047D01*
X25034Y-18188D01*
X25002Y-18263D01*
X24981Y-18212D01*
X24885Y-18184D01*
X24815Y-18255D01*
X24815Y-18114D01*
X24787Y-18018D01*
X24581Y-17945D01*
X24363Y-17956D01*
X24212Y-18018D01*
X24184Y-18114D01*
X24500Y-18429D01*
X24815Y-18114D01*
X24815Y-18255D01*
X24570Y-18500D01*
X24885Y-18815D01*
X24981Y-18787D01*
X25000Y-18732D01*
X25033Y-18811D01*
X25188Y-18965D01*
X25390Y-19049D01*
X25608Y-19050D01*
X25811Y-18966D01*
X25965Y-18811D01*
X25999Y-18730D01*
X26033Y-18811D01*
X26188Y-18965D01*
X26390Y-19049D01*
X26608Y-19050D01*
X26811Y-18966D01*
X26965Y-18811D01*
X27049Y-18609D01*
X27050Y-18391D01*
X26966Y-18188D01*
X26811Y-18034D01*
X26609Y-17950D01*
X26391Y-17949D01*
X26188Y-18033D01*
X26034Y-18188D01*
X26000Y-18269D01*
X25966Y-18188D01*
X25868Y-18090D01*
X26134Y-17825D01*
X27000Y-17825D01*
X27124Y-17800D01*
X27124Y-17800D01*
X27229Y-17729D01*
X27729Y-17229D01*
X27729Y-17229D01*
X27729Y-17229D01*
X27772Y-17166D01*
X27800Y-17124D01*
X27800Y-17124D01*
X27825Y-17000D01*
X27825Y-13562D01*
X27864Y-13546D01*
X28045Y-13365D01*
X28143Y-13128D01*
X28143Y-12872D01*
X28143Y-19230D01*
X24815Y-19230D01*
X24815Y-18885D01*
X24500Y-18570D01*
X24429Y-18641D01*
X24429Y-18500D01*
X24114Y-18184D01*
X24018Y-18212D01*
X23945Y-18418D01*
X23956Y-18636D01*
X24018Y-18787D01*
X24114Y-18815D01*
X24429Y-18500D01*
X24429Y-18641D01*
X24184Y-18885D01*
X24212Y-18981D01*
X24418Y-19054D01*
X24636Y-19043D01*
X24787Y-18981D01*
X24815Y-18885D01*
X24815Y-19230D01*
X19769Y-19230D01*
X19769Y-10269D01*
X28730Y-10269D01*
X28730Y-19230D01*
G54D10*
G36*
X28730Y-28730D02*
X28143Y-28730D01*
X28143Y-22372D01*
X28143Y-20372D01*
X28046Y-20135D01*
X27865Y-19954D01*
X27628Y-19856D01*
X27372Y-19856D01*
X27135Y-19953D01*
X26954Y-20134D01*
X26932Y-20188D01*
X26875Y-20199D01*
X26770Y-20270D01*
X26770Y-20270D01*
X25304Y-21735D01*
X25304Y-20581D01*
X25293Y-20363D01*
X25231Y-20212D01*
X25135Y-20184D01*
X25065Y-20255D01*
X25065Y-20114D01*
X25037Y-20018D01*
X24831Y-19945D01*
X24613Y-19956D01*
X24462Y-20018D01*
X24434Y-20114D01*
X24750Y-20429D01*
X25065Y-20114D01*
X25065Y-20255D01*
X24820Y-20500D01*
X25135Y-20815D01*
X25231Y-20787D01*
X25304Y-20581D01*
X25304Y-21735D01*
X25270Y-21770D01*
X25199Y-21875D01*
X25175Y-22000D01*
X25175Y-25547D01*
X25065Y-25656D01*
X25065Y-20885D01*
X24750Y-20570D01*
X24679Y-20641D01*
X24679Y-20500D01*
X24364Y-20184D01*
X24300Y-20203D01*
X24300Y-20150D01*
X24262Y-20058D01*
X24191Y-19988D01*
X24099Y-19950D01*
X24000Y-19949D01*
X23400Y-19949D01*
X23308Y-19987D01*
X23238Y-20058D01*
X23200Y-20150D01*
X23199Y-20249D01*
X23199Y-20849D01*
X23237Y-20941D01*
X23308Y-21011D01*
X23400Y-21049D01*
X23425Y-21049D01*
X23425Y-21115D01*
X22270Y-22270D01*
X22199Y-22375D01*
X22175Y-22500D01*
X22175Y-25547D01*
X22034Y-25688D01*
X21950Y-25890D01*
X21949Y-26108D01*
X22033Y-26311D01*
X22188Y-26465D01*
X22390Y-26549D01*
X22608Y-26550D01*
X22811Y-26466D01*
X22965Y-26311D01*
X23049Y-26109D01*
X23050Y-25891D01*
X22966Y-25688D01*
X22825Y-25547D01*
X22825Y-22634D01*
X23979Y-21479D01*
X24050Y-21374D01*
X24050Y-21374D01*
X24075Y-21250D01*
X24075Y-21050D01*
X24099Y-21050D01*
X24191Y-21012D01*
X24261Y-20941D01*
X24299Y-20849D01*
X24300Y-20796D01*
X24364Y-20815D01*
X24679Y-20500D01*
X24679Y-20641D01*
X24434Y-20885D01*
X24462Y-20981D01*
X24668Y-21054D01*
X24886Y-21043D01*
X25037Y-20981D01*
X25065Y-20885D01*
X25065Y-25656D01*
X25050Y-25671D01*
X25050Y-23792D01*
X24890Y-23406D01*
X24595Y-23110D01*
X24209Y-22950D01*
X23792Y-22949D01*
X23406Y-23109D01*
X23110Y-23404D01*
X22950Y-23790D01*
X22949Y-24207D01*
X23109Y-24594D01*
X23404Y-24889D01*
X23790Y-25049D01*
X24207Y-25050D01*
X24594Y-24890D01*
X24889Y-24595D01*
X25049Y-24209D01*
X25050Y-23792D01*
X25050Y-25671D01*
X25034Y-25688D01*
X25000Y-25769D01*
X24966Y-25688D01*
X24811Y-25534D01*
X24609Y-25450D01*
X24391Y-25449D01*
X24188Y-25533D01*
X24034Y-25688D01*
X23950Y-25890D01*
X23949Y-26090D01*
X22590Y-27450D01*
X22391Y-27449D01*
X22188Y-27533D01*
X22047Y-27675D01*
X21884Y-27675D01*
X21647Y-27438D01*
X21647Y-20604D01*
X21638Y-20348D01*
X21558Y-20155D01*
X21453Y-20116D01*
X21383Y-20187D01*
X21383Y-20046D01*
X21344Y-19941D01*
X21104Y-19852D01*
X20848Y-19861D01*
X20655Y-19941D01*
X20616Y-20046D01*
X21000Y-20429D01*
X21383Y-20046D01*
X21383Y-20187D01*
X21070Y-20500D01*
X21453Y-20883D01*
X21558Y-20844D01*
X21647Y-20604D01*
X21647Y-27438D01*
X21325Y-27115D01*
X21325Y-23062D01*
X21364Y-23046D01*
X21545Y-22865D01*
X21643Y-22628D01*
X21643Y-22372D01*
X21546Y-22135D01*
X21383Y-21972D01*
X21383Y-20953D01*
X21000Y-20570D01*
X20929Y-20641D01*
X20929Y-20500D01*
X20546Y-20116D01*
X20441Y-20155D01*
X20352Y-20395D01*
X20361Y-20651D01*
X20441Y-20844D01*
X20546Y-20883D01*
X20929Y-20500D01*
X20929Y-20641D01*
X20616Y-20953D01*
X20655Y-21058D01*
X20895Y-21147D01*
X21151Y-21138D01*
X21344Y-21058D01*
X21383Y-20953D01*
X21383Y-21972D01*
X21365Y-21954D01*
X21128Y-21856D01*
X20872Y-21856D01*
X20635Y-21953D01*
X20454Y-22134D01*
X20356Y-22371D01*
X20356Y-22627D01*
X20453Y-22864D01*
X20634Y-23045D01*
X20675Y-23062D01*
X20675Y-27250D01*
X20699Y-27374D01*
X20770Y-27479D01*
X21520Y-28229D01*
X21520Y-28229D01*
X21625Y-28300D01*
X21625Y-28300D01*
X21725Y-28320D01*
X21749Y-28325D01*
X21749Y-28324D01*
X21750Y-28325D01*
X22047Y-28325D01*
X22188Y-28465D01*
X22390Y-28549D01*
X22608Y-28550D01*
X22811Y-28466D01*
X22965Y-28311D01*
X23049Y-28109D01*
X23050Y-27909D01*
X24409Y-26549D01*
X24608Y-26550D01*
X24811Y-26466D01*
X24965Y-26311D01*
X24999Y-26230D01*
X25033Y-26311D01*
X25188Y-26465D01*
X25390Y-26549D01*
X25608Y-26550D01*
X25811Y-26466D01*
X25965Y-26311D01*
X25997Y-26236D01*
X26018Y-26287D01*
X26114Y-26315D01*
X26429Y-26000D01*
X26114Y-25684D01*
X26018Y-25712D01*
X25999Y-25767D01*
X25966Y-25688D01*
X25825Y-25547D01*
X25825Y-22134D01*
X27024Y-20934D01*
X27134Y-21045D01*
X27371Y-21143D01*
X27627Y-21143D01*
X27864Y-21046D01*
X28045Y-20865D01*
X28143Y-20628D01*
X28143Y-20372D01*
X28143Y-22372D01*
X28046Y-22135D01*
X27865Y-21954D01*
X27628Y-21856D01*
X27372Y-21856D01*
X27135Y-21953D01*
X26954Y-22134D01*
X26856Y-22371D01*
X26856Y-22627D01*
X26953Y-22864D01*
X27134Y-23045D01*
X27175Y-23062D01*
X27175Y-26365D01*
X27054Y-26485D01*
X27054Y-26081D01*
X27043Y-25863D01*
X26981Y-25712D01*
X26885Y-25684D01*
X26815Y-25755D01*
X26815Y-25614D01*
X26787Y-25518D01*
X26581Y-25445D01*
X26363Y-25456D01*
X26212Y-25518D01*
X26184Y-25614D01*
X26500Y-25929D01*
X26815Y-25614D01*
X26815Y-25755D01*
X26570Y-26000D01*
X26885Y-26315D01*
X26981Y-26287D01*
X27054Y-26081D01*
X27054Y-26485D01*
X26865Y-26675D01*
X26815Y-26675D01*
X26815Y-26385D01*
X26500Y-26070D01*
X26184Y-26385D01*
X26212Y-26481D01*
X26418Y-26554D01*
X26636Y-26543D01*
X26787Y-26481D01*
X26815Y-26385D01*
X26815Y-26675D01*
X26000Y-26675D01*
X25875Y-26699D01*
X25833Y-26727D01*
X25770Y-26770D01*
X25770Y-26770D01*
X25270Y-27270D01*
X25199Y-27375D01*
X25175Y-27500D01*
X25175Y-27547D01*
X25034Y-27688D01*
X25002Y-27763D01*
X24981Y-27712D01*
X24885Y-27684D01*
X24815Y-27755D01*
X24815Y-27614D01*
X24787Y-27518D01*
X24581Y-27445D01*
X24363Y-27456D01*
X24212Y-27518D01*
X24184Y-27614D01*
X24500Y-27929D01*
X24815Y-27614D01*
X24815Y-27755D01*
X24570Y-28000D01*
X24885Y-28315D01*
X24981Y-28287D01*
X25000Y-28232D01*
X25033Y-28311D01*
X25188Y-28465D01*
X25390Y-28549D01*
X25608Y-28550D01*
X25811Y-28466D01*
X25965Y-28311D01*
X25999Y-28230D01*
X26033Y-28311D01*
X26188Y-28465D01*
X26390Y-28549D01*
X26608Y-28550D01*
X26811Y-28466D01*
X26965Y-28311D01*
X27049Y-28109D01*
X27050Y-27891D01*
X26966Y-27688D01*
X26811Y-27534D01*
X26609Y-27450D01*
X26391Y-27449D01*
X26188Y-27533D01*
X26034Y-27688D01*
X26000Y-27769D01*
X25966Y-27688D01*
X25868Y-27590D01*
X26134Y-27325D01*
X27000Y-27325D01*
X27124Y-27300D01*
X27124Y-27300D01*
X27229Y-27229D01*
X27729Y-26729D01*
X27729Y-26729D01*
X27729Y-26729D01*
X27772Y-26666D01*
X27800Y-26624D01*
X27800Y-26624D01*
X27825Y-26500D01*
X27825Y-23062D01*
X27864Y-23046D01*
X28045Y-22865D01*
X28143Y-22628D01*
X28143Y-22372D01*
X28143Y-28730D01*
X24815Y-28730D01*
X24815Y-28385D01*
X24500Y-28070D01*
X24429Y-28141D01*
X24429Y-28000D01*
X24114Y-27684D01*
X24018Y-27712D01*
X23945Y-27918D01*
X23956Y-28136D01*
X24018Y-28287D01*
X24114Y-28315D01*
X24429Y-28000D01*
X24429Y-28141D01*
X24184Y-28385D01*
X24212Y-28481D01*
X24418Y-28554D01*
X24636Y-28543D01*
X24787Y-28481D01*
X24815Y-28385D01*
X24815Y-28730D01*
X19769Y-28730D01*
X19769Y-19769D01*
X28730Y-19769D01*
X28730Y-28730D01*
X28730Y-28730D01*
G37*
G54D16*
X28730Y-28730D02*
X28143Y-28730D01*
X28143Y-22372D01*
X28143Y-20372D01*
X28046Y-20135D01*
X27865Y-19954D01*
X27628Y-19856D01*
X27372Y-19856D01*
X27135Y-19953D01*
X26954Y-20134D01*
X26932Y-20188D01*
X26875Y-20199D01*
X26770Y-20270D01*
X26770Y-20270D01*
X25304Y-21735D01*
X25304Y-20581D01*
X25293Y-20363D01*
X25231Y-20212D01*
X25135Y-20184D01*
X25065Y-20255D01*
X25065Y-20114D01*
X25037Y-20018D01*
X24831Y-19945D01*
X24613Y-19956D01*
X24462Y-20018D01*
X24434Y-20114D01*
X24750Y-20429D01*
X25065Y-20114D01*
X25065Y-20255D01*
X24820Y-20500D01*
X25135Y-20815D01*
X25231Y-20787D01*
X25304Y-20581D01*
X25304Y-21735D01*
X25270Y-21770D01*
X25199Y-21875D01*
X25175Y-22000D01*
X25175Y-25547D01*
X25065Y-25656D01*
X25065Y-20885D01*
X24750Y-20570D01*
X24679Y-20641D01*
X24679Y-20500D01*
X24364Y-20184D01*
X24300Y-20203D01*
X24300Y-20150D01*
X24262Y-20058D01*
X24191Y-19988D01*
X24099Y-19950D01*
X24000Y-19949D01*
X23400Y-19949D01*
X23308Y-19987D01*
X23238Y-20058D01*
X23200Y-20150D01*
X23199Y-20249D01*
X23199Y-20849D01*
X23237Y-20941D01*
X23308Y-21011D01*
X23400Y-21049D01*
X23425Y-21049D01*
X23425Y-21115D01*
X22270Y-22270D01*
X22199Y-22375D01*
X22175Y-22500D01*
X22175Y-25547D01*
X22034Y-25688D01*
X21950Y-25890D01*
X21949Y-26108D01*
X22033Y-26311D01*
X22188Y-26465D01*
X22390Y-26549D01*
X22608Y-26550D01*
X22811Y-26466D01*
X22965Y-26311D01*
X23049Y-26109D01*
X23050Y-25891D01*
X22966Y-25688D01*
X22825Y-25547D01*
X22825Y-22634D01*
X23979Y-21479D01*
X24050Y-21374D01*
X24050Y-21374D01*
X24075Y-21250D01*
X24075Y-21050D01*
X24099Y-21050D01*
X24191Y-21012D01*
X24261Y-20941D01*
X24299Y-20849D01*
X24300Y-20796D01*
X24364Y-20815D01*
X24679Y-20500D01*
X24679Y-20641D01*
X24434Y-20885D01*
X24462Y-20981D01*
X24668Y-21054D01*
X24886Y-21043D01*
X25037Y-20981D01*
X25065Y-20885D01*
X25065Y-25656D01*
X25050Y-25671D01*
X25050Y-23792D01*
X24890Y-23406D01*
X24595Y-23110D01*
X24209Y-22950D01*
X23792Y-22949D01*
X23406Y-23109D01*
X23110Y-23404D01*
X22950Y-23790D01*
X22949Y-24207D01*
X23109Y-24594D01*
X23404Y-24889D01*
X23790Y-25049D01*
X24207Y-25050D01*
X24594Y-24890D01*
X24889Y-24595D01*
X25049Y-24209D01*
X25050Y-23792D01*
X25050Y-25671D01*
X25034Y-25688D01*
X25000Y-25769D01*
X24966Y-25688D01*
X24811Y-25534D01*
X24609Y-25450D01*
X24391Y-25449D01*
X24188Y-25533D01*
X24034Y-25688D01*
X23950Y-25890D01*
X23949Y-26090D01*
X22590Y-27450D01*
X22391Y-27449D01*
X22188Y-27533D01*
X22047Y-27675D01*
X21884Y-27675D01*
X21647Y-27438D01*
X21647Y-20604D01*
X21638Y-20348D01*
X21558Y-20155D01*
X21453Y-20116D01*
X21383Y-20187D01*
X21383Y-20046D01*
X21344Y-19941D01*
X21104Y-19852D01*
X20848Y-19861D01*
X20655Y-19941D01*
X20616Y-20046D01*
X21000Y-20429D01*
X21383Y-20046D01*
X21383Y-20187D01*
X21070Y-20500D01*
X21453Y-20883D01*
X21558Y-20844D01*
X21647Y-20604D01*
X21647Y-27438D01*
X21325Y-27115D01*
X21325Y-23062D01*
X21364Y-23046D01*
X21545Y-22865D01*
X21643Y-22628D01*
X21643Y-22372D01*
X21546Y-22135D01*
X21383Y-21972D01*
X21383Y-20953D01*
X21000Y-20570D01*
X20929Y-20641D01*
X20929Y-20500D01*
X20546Y-20116D01*
X20441Y-20155D01*
X20352Y-20395D01*
X20361Y-20651D01*
X20441Y-20844D01*
X20546Y-20883D01*
X20929Y-20500D01*
X20929Y-20641D01*
X20616Y-20953D01*
X20655Y-21058D01*
X20895Y-21147D01*
X21151Y-21138D01*
X21344Y-21058D01*
X21383Y-20953D01*
X21383Y-21972D01*
X21365Y-21954D01*
X21128Y-21856D01*
X20872Y-21856D01*
X20635Y-21953D01*
X20454Y-22134D01*
X20356Y-22371D01*
X20356Y-22627D01*
X20453Y-22864D01*
X20634Y-23045D01*
X20675Y-23062D01*
X20675Y-27250D01*
X20699Y-27374D01*
X20770Y-27479D01*
X21520Y-28229D01*
X21520Y-28229D01*
X21625Y-28300D01*
X21625Y-28300D01*
X21725Y-28320D01*
X21749Y-28325D01*
X21749Y-28324D01*
X21750Y-28325D01*
X22047Y-28325D01*
X22188Y-28465D01*
X22390Y-28549D01*
X22608Y-28550D01*
X22811Y-28466D01*
X22965Y-28311D01*
X23049Y-28109D01*
X23050Y-27909D01*
X24409Y-26549D01*
X24608Y-26550D01*
X24811Y-26466D01*
X24965Y-26311D01*
X24999Y-26230D01*
X25033Y-26311D01*
X25188Y-26465D01*
X25390Y-26549D01*
X25608Y-26550D01*
X25811Y-26466D01*
X25965Y-26311D01*
X25997Y-26236D01*
X26018Y-26287D01*
X26114Y-26315D01*
X26429Y-26000D01*
X26114Y-25684D01*
X26018Y-25712D01*
X25999Y-25767D01*
X25966Y-25688D01*
X25825Y-25547D01*
X25825Y-22134D01*
X27024Y-20934D01*
X27134Y-21045D01*
X27371Y-21143D01*
X27627Y-21143D01*
X27864Y-21046D01*
X28045Y-20865D01*
X28143Y-20628D01*
X28143Y-20372D01*
X28143Y-22372D01*
X28046Y-22135D01*
X27865Y-21954D01*
X27628Y-21856D01*
X27372Y-21856D01*
X27135Y-21953D01*
X26954Y-22134D01*
X26856Y-22371D01*
X26856Y-22627D01*
X26953Y-22864D01*
X27134Y-23045D01*
X27175Y-23062D01*
X27175Y-26365D01*
X27054Y-26485D01*
X27054Y-26081D01*
X27043Y-25863D01*
X26981Y-25712D01*
X26885Y-25684D01*
X26815Y-25755D01*
X26815Y-25614D01*
X26787Y-25518D01*
X26581Y-25445D01*
X26363Y-25456D01*
X26212Y-25518D01*
X26184Y-25614D01*
X26500Y-25929D01*
X26815Y-25614D01*
X26815Y-25755D01*
X26570Y-26000D01*
X26885Y-26315D01*
X26981Y-26287D01*
X27054Y-26081D01*
X27054Y-26485D01*
X26865Y-26675D01*
X26815Y-26675D01*
X26815Y-26385D01*
X26500Y-26070D01*
X26184Y-26385D01*
X26212Y-26481D01*
X26418Y-26554D01*
X26636Y-26543D01*
X26787Y-26481D01*
X26815Y-26385D01*
X26815Y-26675D01*
X26000Y-26675D01*
X25875Y-26699D01*
X25833Y-26727D01*
X25770Y-26770D01*
X25770Y-26770D01*
X25270Y-27270D01*
X25199Y-27375D01*
X25175Y-27500D01*
X25175Y-27547D01*
X25034Y-27688D01*
X25002Y-27763D01*
X24981Y-27712D01*
X24885Y-27684D01*
X24815Y-27755D01*
X24815Y-27614D01*
X24787Y-27518D01*
X24581Y-27445D01*
X24363Y-27456D01*
X24212Y-27518D01*
X24184Y-27614D01*
X24500Y-27929D01*
X24815Y-27614D01*
X24815Y-27755D01*
X24570Y-28000D01*
X24885Y-28315D01*
X24981Y-28287D01*
X25000Y-28232D01*
X25033Y-28311D01*
X25188Y-28465D01*
X25390Y-28549D01*
X25608Y-28550D01*
X25811Y-28466D01*
X25965Y-28311D01*
X25999Y-28230D01*
X26033Y-28311D01*
X26188Y-28465D01*
X26390Y-28549D01*
X26608Y-28550D01*
X26811Y-28466D01*
X26965Y-28311D01*
X27049Y-28109D01*
X27050Y-27891D01*
X26966Y-27688D01*
X26811Y-27534D01*
X26609Y-27450D01*
X26391Y-27449D01*
X26188Y-27533D01*
X26034Y-27688D01*
X26000Y-27769D01*
X25966Y-27688D01*
X25868Y-27590D01*
X26134Y-27325D01*
X27000Y-27325D01*
X27124Y-27300D01*
X27124Y-27300D01*
X27229Y-27229D01*
X27729Y-26729D01*
X27729Y-26729D01*
X27729Y-26729D01*
X27772Y-26666D01*
X27800Y-26624D01*
X27800Y-26624D01*
X27825Y-26500D01*
X27825Y-23062D01*
X27864Y-23046D01*
X28045Y-22865D01*
X28143Y-22628D01*
X28143Y-22372D01*
X28143Y-28730D01*
X24815Y-28730D01*
X24815Y-28385D01*
X24500Y-28070D01*
X24429Y-28141D01*
X24429Y-28000D01*
X24114Y-27684D01*
X24018Y-27712D01*
X23945Y-27918D01*
X23956Y-28136D01*
X24018Y-28287D01*
X24114Y-28315D01*
X24429Y-28000D01*
X24429Y-28141D01*
X24184Y-28385D01*
X24212Y-28481D01*
X24418Y-28554D01*
X24636Y-28543D01*
X24787Y-28481D01*
X24815Y-28385D01*
X24815Y-28730D01*
X19769Y-28730D01*
X19769Y-19769D01*
X28730Y-19769D01*
X28730Y-28730D01*
M02*
